<svg xmlns="http://www.w3.org/2000/svg" xml:space="preserve" viewBox="0 0 500 500">
    <style>
        path{fill:#fff}#dragon path{fill:#000}@media (prefers-color-scheme:dark){path{fill:#000}#dragon path{fill:#fff}}
    </style>
    <g id="artwork">
        <path d="M25.798 370.901v-86.08h36.135c27.102 0 46.59 16.261 46.59 42.976 0 26.714-19.487 43.104-46.46 43.104H25.798zm60.011-43.105c0-13.294-8.002-23.618-23.746-23.618H47.995v47.364h13.938c15.1 0 23.876-10.969 23.876-23.746zM168.924 370.901l-14.454-28.909h-11.357v28.909h-22.197v-86.08h43.104c19.101 0 29.941 12.647 29.941 28.65 0 14.97-9.034 22.973-17.164 25.811l17.552 31.619h-25.425zm2.453-57.559c0-5.937-4.775-9.164-10.712-9.164h-17.552v18.455h17.552c5.937 0 10.712-3.226 10.712-9.291zM268.561 370.901l-4.259-12.389H230.36l-4.259 12.389h-25.166l32.393-86.08h28.006l32.393 86.08h-25.166zm-21.166-64.141-10.97 32.393h21.811l-10.841-32.393zM292.826 327.925c0-26.585 20.133-44.525 46.59-44.525 20.778 0 32.005 11.745 37.556 22.973l-19.1 9.163c-2.839-6.841-10.196-12.518-18.455-12.518-14.067 0-24.004 10.712-24.004 24.908 0 14.067 9.937 24.908 24.004 24.908 8.26 0 15.616-5.679 18.455-12.518l19.1 9.034c-5.55 10.969-16.778 23.101-37.556 23.101-26.457-.001-46.59-18.07-46.59-44.526zM384.718 327.925c0-26.199 19.746-44.525 46.074-44.525 26.327 0 45.944 18.326 45.944 44.525 0 26.198-19.617 44.525-45.944 44.525-26.329 0-46.074-18.327-46.074-44.525zm69.432 0c0-14.067-9.163-24.908-23.359-24.908-14.197 0-23.488 10.84-23.488 24.908 0 13.938 9.291 24.908 23.488 24.908 14.196-.001 23.359-10.97 23.359-24.908zM25.04 414.589l2.541-3.218c1.525 1.625 3.997 2.575 6.2 2.575 2.744 0 4.268-1.186 4.268-2.879 0-1.795-1.389-2.609-4.54-2.609-.948 0-2.473.034-2.811.068v-4.336c.407.034 1.965.034 2.811.034 2.507 0 4.201-.745 4.201-2.406 0-1.795-1.863-2.676-4.201-2.676-2.201 0-4.167.812-5.759 2.337l-2.405-3.014c1.829-2.067 4.675-3.592 8.638-3.592 5.285 0 8.537 2.372 8.537 6.132 0 2.847-2.439 4.709-4.946 5.15 2.303.238 5.285 2.033 5.285 5.42 0 3.896-3.489 6.64-8.91 6.64-4.132-.001-7.249-1.594-8.909-3.626zM49.873 417.807v-22.595h8.909c7.08 0 11.992 4.505 11.992 11.28 0 6.843-4.912 11.315-11.958 11.315h-8.943zm15.989-11.315c0-3.964-2.439-7.046-7.046-7.046h-4.133v14.127h4.099c4.472 0 7.08-3.218 7.08-7.081zM89.68 417.807v-22.595h8.909c7.08 0 11.992 4.505 11.992 11.28 0 6.843-4.912 11.315-11.958 11.315H89.68zm15.989-11.315c0-3.964-2.439-7.046-7.046-7.046H94.49v14.127h4.099c4.472 0 7.08-3.218 7.08-7.081zM131.857 417.807l-1.423-3.828h-9.688l-1.423 3.828h-5.454l8.706-22.595h6.03l8.706 22.595h-5.454zm-6.267-17.785-3.523 9.722h7.046l-3.523-9.722zM145.849 417.807v-18.361h-6.606v-4.234h18.023v4.234h-6.572v18.361h-4.845zM177.186 417.807l-1.423-3.828h-9.688l-1.423 3.828h-5.454l8.706-22.595h6.03l8.706 22.595h-5.454zm-6.267-17.785-3.523 9.722h7.046l-3.523-9.722zM199.14 406.526c0-6.978 5.251-11.687 12.06-11.687 4.946 0 7.826 2.676 9.418 5.521l-4.133 2.033c-.949-1.829-2.981-3.286-5.285-3.286-4.133 0-7.114 3.15-7.114 7.418 0 4.268 2.981 7.42 7.114 7.42 2.303 0 4.336-1.457 5.285-3.286l4.133 1.998c-1.592 2.811-4.472 5.556-9.418 5.556-6.809.001-12.06-4.742-12.06-11.687zM225.802 406.526c0-6.809 4.98-11.687 11.823-11.687 6.809 0 11.789 4.878 11.789 11.687 0 6.809-4.98 11.688-11.789 11.688-6.843 0-11.823-4.879-11.823-11.688zm18.666 0c0-4.234-2.676-7.418-6.843-7.418-4.201 0-6.877 3.184-6.877 7.418 0 4.201 2.676 7.42 6.877 7.42 4.167 0 6.843-3.219 6.843-7.42zM275.84 417.807v-16.295l-6.369 16.295h-2.1l-6.369-16.295v16.295h-4.81v-22.595h6.741l5.488 14.125 5.488-14.125h6.775v22.595h-4.844zM288.545 417.807v-22.595h10.57c4.912 0 7.588 3.319 7.588 7.282 0 3.931-2.711 7.25-7.588 7.25h-5.759v8.063h-4.811zm13.245-15.312c0-1.896-1.457-3.048-3.354-3.048h-5.08v6.064h5.08c1.897-.001 3.354-1.153 3.354-3.016zM325.878 417.807l-4.437-8.029h-3.523v8.029h-4.811v-22.595h10.57c4.709 0 7.621 3.082 7.621 7.282 0 3.964-2.54 6.132-4.98 6.708l5.116 8.604h-5.556zm.475-15.346c0-1.862-1.457-3.014-3.354-3.014h-5.08v6.098h5.08c1.897-.001 3.354-1.153 3.354-3.084zM338.278 417.807v-22.595h15.99v4.234h-11.18v4.743h10.942v4.234h-10.942v5.15h11.18v4.234h-15.99zM359.859 414.623l2.643-3.761c1.591 1.661 4.065 3.083 7.182 3.083 2.677 0 3.93-1.186 3.93-2.507 0-3.931-13.009-1.186-13.009-9.69 0-3.76 3.252-6.877 8.57-6.877 3.591 0 6.572 1.084 8.808 3.151l-2.677 3.591c-1.829-1.693-4.268-2.473-6.571-2.473-2.033 0-3.185.88-3.185 2.235 0 3.558 12.975 1.152 12.975 9.588 0 4.133-2.98 7.25-9.045 7.25-4.37.001-7.487-1.456-9.621-3.59zM383.573 414.623l2.643-3.761c1.591 1.661 4.065 3.083 7.182 3.083 2.677 0 3.93-1.186 3.93-2.507 0-3.931-13.009-1.186-13.009-9.69 0-3.76 3.252-6.877 8.57-6.877 3.591 0 6.572 1.084 8.808 3.151l-2.677 3.591c-1.829-1.693-4.268-2.473-6.571-2.473-2.033 0-3.185.88-3.185 2.235 0 3.558 12.975 1.152 12.975 9.588 0 4.133-2.98 7.25-9.044 7.25-4.371.001-7.488-1.456-9.622-3.59zM408.847 417.807v-22.595h4.81v22.595h-4.81zM420.433 406.526c0-6.809 4.98-11.687 11.823-11.687 6.809 0 11.789 4.878 11.789 11.687 0 6.809-4.98 11.688-11.789 11.688-6.844 0-11.823-4.879-11.823-11.688zm18.665 0c0-4.234-2.676-7.418-6.843-7.418-4.2 0-6.877 3.184-6.877 7.418 0 4.201 2.677 7.42 6.877 7.42 4.168 0 6.843-3.219 6.843-7.42zM466.405 417.807l-10.772-14.736v14.736h-4.811v-22.595h4.946l10.468 14.193v-14.193h4.811v22.595h-4.642z"/>
        <g id="dragon">
          <path fill="#FFF" d="M226.991 147.178c0-19.207 5.871-37.068 15.911-51.884-20.691 2.636-35.34 13.381-44.535 26.598-.122.175-.244.351-.364.527-.234.333-.458.673-.686 1.01-6.002 9.166-9.456 19.382-10.547 28.851-.036.333-.072.667-.103 1.002-.044.45-.086.9-.12 1.346-.068.914-.121 1.822-.145 2.717-.001.03 0 .059 0 .09-.021.829-.014 1.639-.009 2.451.106 19.717 7.574 34.428 18.287 44.678.305.165.606.338.914.499 1.704.888 3.457 1.695 5.25 2.427.612.25 1.209-.399.909-.987-2.145-4.207-4.066-8.544-5.742-13-5.633-14.974-8.533-31.25-8.087-48.203.062-2.354.195-4.69.383-7.01.022-.277.087-.549.194-.806 1.129-2.72 2.461-5.333 3.982-7.817.174-.285.613-.124.562.206-.776 5.079-1.25 10.258-1.389 15.525-.527 19.98 3.732 38.994 11.72 55.95 1.375 2.919 2.873 5.769 4.466 8.559.73 1.28 1.483 2.545 2.257 3.796 4.554 1.729 9.359 2.953 14.35 3.608.701.092 1.17-.707.746-1.273-.873-1.167-1.722-2.352-2.549-3.554-.062-.089-.12-.18-.182-.27-12.935-18.918-20.262-41.914-19.614-66.523.299-11.336 2.271-22.242 5.668-32.489.138-.418.413-.781.779-1.027 1.165-.78 2.36-1.516 3.583-2.208.325-.184.7.142.569.492-4.133 11.029-6.541 22.911-6.868 35.33-.652 24.733 7.023 47.786 20.466 66.471.438.608.88 1.211 1.33 1.809.967 1.288 1.97 2.548 2.992 3.791 1.411 1.715 2.868 3.39 4.379 5.016 4.304.404 12.331.513 17.654-.295.735-.112.98-1.049.387-1.498-22.34-16.944-36.798-43.766-36.798-73.905zM282.834 151.145c-.192-.19-.503-.184-.692.009-.153.157-.307.312-.464.466-.729.716-1.477 1.398-2.243 2.046-.176.149-.222.399-.109.602.244.44.479.886.705 1.337.231.46.453.926.665 1.397.13.288.493.385.742.191.72-.562 1.428-1.155 2.12-1.787.338-.308.673-.624 1.003-.949.137-.134.271-.27.403-.406.179-.183.184-.476.013-.666-.693-.765-1.408-1.513-2.143-2.24zM278.05 146.95c-.318-.247-.639-.49-.962-.729-.194-.144-.464-.12-.635.051-.021.021-.042.042-.063.062-.528.519-1.068 1.018-1.616 1.502.089.1.179.2.266.301.675.781 1.317 1.591 1.924 2.428.168.231.497.274.712.086.541-.473 1.074-.966 1.597-1.479.102-.1.202-.201.301-.302.199-.203.187-.534-.031-.716-.491-.411-.989-.812-1.493-1.204zM296.346 184.015c-1.691.697-3.454 1.29-5.275 1.76-3.271.844-6.584 1.272-9.849 1.272-.145 0-.29-.002-.434-.005-.19-.004-.364.104-.446.276-1.144 2.397-2.544 4.649-4.164 6.721-.208.266-.095.66.226.763 2.377.763 4.924 1.301 7.593 1.559 2.869.278 5.661.211 8.306-.145.141-.019.267-.098.345-.216 2.355-3.551 3.899-7.424 4.37-11.475.043-.373-.326-.653-.672-.51zM296.001 173.148c-.06-.23-.123-.46-.187-.689-.145.097-.293.192-.44.287-.703.457-1.422.899-2.161 1.316-.4.226-.802.443-1.206.654-2.731 1.427-5.553 2.513-8.398 3.24-.182.047-.319.194-.353.379-.289 1.574-.681 3.113-1.167 4.609-.104.321.136.652.473.639 2.489-.097 5.06-.463 7.649-1.132 2.342-.605 4.549-1.419 6.597-2.397.181-.086.291-.276.276-.476-.036-.487-.084-.973-.141-1.46-.193-1.661-.511-3.321-.942-4.97zM287.828 156.822c-.179-.234-.524-.254-.731-.045-.044.044-.087.088-.132.131-.688.675-1.393 1.319-2.113 1.934-.778.665-1.573 1.294-2.383 1.886-.166.121-.236.332-.176.529.296.974.552 1.966.766 2.973.07.331.446.498.732.318 2.012-1.269 3.965-2.786 5.798-4.552.025-.235.042-.39.067-.625-.026-.039-.053-.079-.079-.118-.558-.824-1.142-1.635-1.749-2.431zM288.451 199.955c-.29.008-.581.012-.873.012-1.294 0-2.61-.064-3.911-.19-3.546-.343-6.957-1.141-10.113-2.332-.176-.067-.373-.025-.507.107-1.877 1.849-3.955 3.495-6.198 4.902-.286.179-.314.587-.047.794 1.972 1.529 4.179 2.903 6.597 4.058 1.413.675 2.84 1.243 4.266 1.716.13.043.274.03.395-.037 4.083-2.267 7.752-5.049 10.758-8.208.299-.315.068-.833-.367-.822zM264.249 106.132z"/>
                <path fill="#FFF" d="M272.603 210.722c-.228-.103-.456-.209-.683-.317-3.211-1.533-6.139-3.447-8.695-5.642-.143-.123-.342-.151-.513-.072-2.508 1.152-5.169 2.026-7.945 2.581-.374.075-.529.528-.269.808 2.129 2.296 4.374 4.481 6.723 6.552.111.098.262.141.409.117 3.761-.635 7.453-1.703 10.951-3.135.394-.163.411-.716.022-.892zM284.428 174.147c1.225-.38 2.453-.834 3.674-1.367 1.15-.502 2.294-1.068 3.423-1.706.154-.087.303-.179.455-.268.83-.485 1.632-.994 2.403-1.527.185-.128.259-.369.177-.579-.717-1.85-1.57-3.67-2.543-5.446-.152-.277-.524-.333-.756-.119-2.033 1.87-4.203 3.491-6.456 4.838-.273.163-.547.321-.823.476-.165.092-.259.27-.244.458.062.782.098 1.57.109 2.365.002.169.006.339.006.509 0 .628-.017 1.251-.049 1.871-.018.337.301.595.624.495zM272.056 145.071c.183.168.463.173.648.008.23-.205.458-.413.685-.625.233-.218.192-.603-.081-.769-.651-.394-1.309-.77-1.973-1.13-.764-.415-1.536-.807-2.316-1.173-.167-.078-.365-.056-.509.058-.003.002-.005.004-.008.006-.256.202-.243.59.023.779.421.298.833.608 1.241.924.788.61 1.554 1.25 2.29 1.922zM246.066 123.862c-.724 2.402-1.117 4.947-1.117 7.585 0 1.64.158 3.242.446 4.799.177.958.403 1.899.681 2.818.944 3.117 2.454 5.985 4.408 8.492.609.032 1.234.057 1.874.073.479.013.964.022 1.461.026.089.001.177.007.264.014.131-.003.261-.01.392-.01 4.463 0 8.471 1.977 11.202 5.098.217.248.427.503.628.765.059.08.116.161.172.242.751 1.094 1.27 2.36 1.484 3.727.073.465.112.941.112 1.427 0 2.397-.926 4.576-2.437 6.205.19-.828.294-1.69.294-2.576 0-2.098-.567-4.062-1.551-5.753-1.984-3.409-5.675-5.703-9.905-5.703-.075 0-.15.004-.225.006.004-.002.008-.004.012-.007-.157-.001-6.121-.192-8.607-.528-6.688-.905-13.173-4.969-15.164-6.669-.04 1.091-.067 2.185-.067 3.285 0 3.269.18 6.497.524 9.677.21.153.465.275.769.367 3.002.909 5.993 1.861 9.022 2.67 2.423.647 4.916 1.032 7.339 1.681 1.933.517 2.56 1.644 2.261 3.6-.095.618-.305 1.218-.43 1.832-.839 4.144.068 7.721 3.475 10.441.692.553 1.487.977 2.282 1.491-1.093 1.448-2.205.67-3.104.135-2.396-1.426-4.028-3.537-4.843-6.215-.532-1.747-.937-3.531-1.437-5.288-.578-2.029-1.668-3.472-4.023-3.549-.847-.028-1.682-.324-2.53-.438-2.647-.353-5.3-.685-7.974-1.025 2.741 15.716 9.602 30.034 19.429 41.794 16.413-1.763 29.237-15.696 29.237-32.57 0-5.29-1.262-10.289-3.498-14.717-.547-1.084-1.156-2.132-1.816-3.143-2.653-4.064-6.185-7.502-10.32-10.05-1.369-.843-2.803-1.589-4.295-2.227-.019-.008-.037-.016-.056-.024-.341-.145-.685-.284-1.032-.418l-.126-.048c-.345-.131-.692-.257-1.043-.377-.025-.009-.05-.018-.075-.026-.769-.261-1.551-.495-2.345-.699l-3.106-2.211 2.302-1.092c-1.496-1.08-2.869-2.404-4.049-4.138l-2.243-3.294 2.045-.985c-1.781-1.158-3.382-2.755-4.697-4.47z"/>
                <path fill="#FFF" d="m308.144 135.232.418-.028c.115-.386.436-.864.311-1.142-.742-1.646-2.184-2.123-3.885-2.34-1.44-.183-3.084-.358-4.207-1.147-1.198-.842-2.389-1.703-3.559-2.592-1.963-1.49-3.868-3.057-5.65-4.741-1.729-1.633-2.845-3.914-4.395-6.131 1.481-.105 1.918-.798 1.28-1.576-.713-.869-1.651-1.728-2.673-2.14-4.129-1.662-8.022-3.724-10.933-7.123-.269-.314-.543-.618-.82-.917-3.64-3.927-7.615-6.138-13.085-6.713-.5-.053-1.762.099-2.005.335 2.61.122 4.569 2.073 5.308 4.471 3.222-.043 6.59 1.677 6.586 1.756-2.279.031-4.485.357-6.588.933-2.427.665-4.714 1.667-6.805 2.957-.168-.147-.334-.299-.495-.455-.485-.47-.937-.986-1.35-1.558-.587-.815-.882-1.668-1.02-2.543-.217-1.377-.044-2.809.005-4.24-1.245 1.459-1.98 2.916-2.341 4.373v.001c-.642 2.59-.103 5.18.851 7.775.1.272.206.545.314.817.031.077.063.155.094.232.08.198.162.397.245.595.037.087.074.175.111.263.085.2.172.399.259.599.032.073.063.146.096.219.118.267.237.535.358.803-.146.122-.294.23-.443.332-.034.024-.069.047-.103.07-.073.048-.147.088-.22.132s-.146.092-.22.132c-.019.01-.039.019-.058.029-.133.069-.267.13-.401.186-.037.015-.074.031-.111.046-.145.057-.292.107-.439.15-.036.011-.072.019-.108.029-.06.016-.121.029-.182.043-.061.014-.121.031-.182.043-.043.009-.085.018-.128.026-.142.025-.284.046-.427.061-.053.006-.106.01-.159.015-.105.009-.211.016-.317.02-.053.002-.106.006-.159.007-.117.003-.234.003-.351.001-.462-.008-.928-.051-1.396-.111-1.029-.133-2.069-.349-3.101-.473.298 1.041.821 2.182 1.502 3.311.482.799 1.044 1.591 1.663 2.337.002.003.004.005.006.008.149.18.302.356.458.53.007.007.013.015.02.022.157.175.317.346.48.513l.023.023c.074.076.15.148.226.222.078.077.156.156.235.231.018.017.036.035.055.053.05.047.101.09.151.136.114.104.228.21.344.309.013.011.027.022.04.034l-.001-.001c.004.003.008.006.012.01.147.125.296.246.446.364.03.023.059.047.089.069.166.128.334.251.503.368.017.012.034.022.051.034.152.104.304.202.457.296.037.023.074.046.112.068.144.086.289.167.435.245.024.013.048.028.073.041.016.008.032.015.048.024.021.011.041.019.062.029.134.067.268.131.402.19.042.018.084.037.126.054.17.071.34.137.51.194.011.003.021.006.032.01.16.052.32.096.48.135.043.011.087.021.13.03.17.037.34.07.509.091.581.072 1.106.596 1.657.911-.453.665-.804 1.448-1.39 1.962-.564.494-1.372.709-2.213 1.114 2.216 3.254 5.392 4.768 8.858 6.241-1.026.487-2.051.973-3.194 1.515.328.234.541.405.771.546 1.609.986 3.23 1.435 4.841 1.474 2.071.05 4.124-.579 6.11-1.618 1.885-.986 3.74-1.356 5.555-1.303 2.334.068 4.601.833 6.784 1.879.538.258 1.071.525 1.602.797.153.078.306.158.459.237.348.181.694.365 1.04.551.056.03.113.059.169.09h.001c.134.072.268.144.402.217 0 0 .001 0 .002.001 0 0 .001 0 .002.001.513.28 1.024.563 1.533.851.109.061.217.124.325.186.416.237.831.475 1.245.716.173.101.347.201.52.303.383.224.766.448 1.148.674.141.083.282.166.422.249.33.195.661.391.991.587l.273.162c1.238.734 2.475 1.468 3.721 2.186 1.663.958 4.315.838 5.25-.461-2.952.046-3.914-.804-5.628-1.643-.751-.368-1.648-.839-2.615-1.364-4.372-2.377-10.18-5.879-10.421-6.095.06-.112 1.059-.182 1.689-.055.105.021.201.046.279.079 3.067 1.284 6.11 3.268 9.178 4.586.003.001.006.003.009.004.083.036.166.076.249.111.474.198.961.367 1.423.592 4.123 2.016 7.685 2.919 11.907 1.608.732-3.134.574-6.272-.553-9.352zm-22.686-14.193c-.343 1.674-1.331 2.924-2.921 3.561-.172.069-.348.129-.522.195-1.135.426-2.298.785-3.437 1.199-.13.047-.258.101-.387.15-.249.094-.499.186-.745.288-2.777 1.196-3.904-1.893-4.207-3.491-.638-2.137-2.333-2.773-4.106-3.451l-.002-.001c-.51-.195-.955-.561-1.781-1.061.994-.333 1.907-.473 2.758-.47 2.555.009 4.561 1.299 6.588 2.491.886.521 1.691 1.328 2.64 1.553.544.129 1.146.207 1.739.203.593-.003 1.177-.087 1.688-.279 1.571-.592 1.705-1.95.747-3.382 1.499.089 2.244 1.048 1.948 2.495zm17.076 17.813c-.608 0-1.211-.066-1.792-.066-.348 0-.688.025-1.016.102-.095.022-.187.041-.278.058-.031.006-.06.009-.091.014-.029.005-.058.009-.086.013-.029.004-.058.009-.087.013-.037.005-.074.007-.11.011-.047.004-.095.008-.141.011-.04.002-.078.003-.117.004-.041.001-.081.001-.122 0-.041-.001-.081-.003-.12-.006-.035-.002-.07-.006-.105-.009-.042-.004-.083-.01-.124-.016-.029-.005-.058-.011-.087-.017-.022-.005-.043-.01-.065-.015-.022-.005-.043-.009-.065-.015-.022-.006-.043-.013-.064-.02-.048-.014-.095-.029-.141-.047-.003-.001-.007-.003-.01-.004-.239-.094-.456-.236-.652-.427-.006-.006-.012-.011-.018-.017-.044-.044-.087-.091-.13-.14-.007-.009-.015-.017-.022-.025-.042-.05-.082-.103-.122-.158-.007-.009-.013-.018-.02-.028-.04-.057-.079-.117-.117-.179-.005-.007-.009-.015-.014-.023-.02-.033-.038-.069-.057-.103-.005-.008-.009-.017-.014-.025-.015-.027-.031-.052-.045-.081-.039-.075-.076-.151-.113-.232-.025-.055-.048-.113-.072-.171-.012-.03-.025-.057-.037-.087.132-.072.266-.138.4-.202 1.578-.761 3.245-.984 4.366-.317.531.316.939.829 1.155 1.583.057.192.103.396.133.621zm2.48-1.017c-.148.576-.491 1.101-.937 2.066-.076-.794-.117-1.105-.133-1.418-.011-.216-.038-.406-.064-.599-.262-1.995-1.301-2.813-3.562-2.943-.088-.005-.181-.013-.279-.023-.223-.016-.445-.046-.667-.069-.705-.073-1.409-.165-2.112-.262-.151-.021-.303-.04-.454-.06-.178-.024-.356-.049-.534-.071.017-.169.034-.337.051-.506.338-.015.675-.034 1.013-.053h.001c.477-.028.955-.057 1.432-.086.336-.02.673-.039 1.009-.056.099-.005.197-.01.296-.015.379-.018.757-.031 1.136-.04.073-.002.146-.002.219-.003.402-.007.803-.009 1.205.001 1.084.026 1.916.798 2.291 1.855.24.682.294 1.48.089 2.282z"/>
                <path fill="#FFF" d="M254.337 100.128c-1.172 1.021-1.947 2.482-2.071 4.127.124-1.646.898-3.106 2.071-4.127zM254.419 151c-.052.03-.105.059-.157.09.071 0 .141.001.213.001l-.056-.091z"/>
        </g>
        <path d="M302.403 138.231c-.216-.754-.625-1.267-1.155-1.583-1.122-.667-2.788-.444-4.366.317-.134.065-.268.13-.4.202.012.031.025.058.037.087.024.058.047.117.072.171.037.081.074.158.113.232.015.028.03.054.045.081.005.008.009.017.014.025.019.034.038.07.057.103.004.008.009.016.014.023.038.063.077.122.117.179.007.009.013.019.02.028.04.055.08.108.122.158.007.009.015.017.022.025.042.049.085.096.13.14.006.006.012.011.018.017.197.191.413.333.652.427.004.001.007.003.01.004.046.018.093.032.141.047.021.007.042.014.064.02.021.006.043.01.065.015.022.005.043.01.065.015.029.006.058.012.087.017.041.007.082.012.124.016.035.004.07.007.105.009.04.003.08.005.12.006.04.001.081.001.122 0 .039-.001.078-.001.117-.004.046-.003.093-.007.141-.011.036-.004.073-.006.11-.011.028-.003.058-.008.087-.013.029-.004.057-.008.086-.013.03-.005.06-.009.091-.014.091-.017.183-.036.278-.058.328-.077.668-.102 1.016-.102.581-.001 1.184.066 1.792.066v-.001c-.032-.224-.078-.428-.133-.62z"/>
        <path d="M250.357 74.265c-46.825.021-84.679 37.835-84.709 84.619-.03 46.757 37.87 84.686 84.624 84.69 46.965.003 84.781-37.784 84.755-84.692-.026-46.845-37.842-84.638-84.67-84.617zm-8.988 143.598c-1.022-1.243-2.025-2.503-2.992-3.791-.45-.598-.892-1.202-1.33-1.809-13.443-18.686-21.118-41.738-20.466-66.471.327-12.419 2.734-24.301 6.868-35.33.131-.35-.244-.677-.569-.492-1.223.693-2.418 1.429-3.583 2.208-.366.245-.641.608-.779 1.027-3.398 10.247-5.37 21.153-5.668 32.489-.648 24.609 6.679 47.605 19.614 66.523.062.089.12.18.182.27.827 1.202 1.677 2.386 2.549 3.554.423.566-.046 1.365-.746 1.273-4.991-.656-9.796-1.879-14.35-3.608-.774-1.251-1.527-2.517-2.257-3.796-1.593-2.79-3.091-5.64-4.466-8.559-7.989-16.956-12.247-35.969-11.72-55.95.139-5.267.613-10.447 1.389-15.525.05-.33-.388-.491-.562-.206-1.521 2.484-2.853 5.097-3.982 7.817-.107.257-.172.529-.194.806-.188 2.32-.321 4.655-.383 7.01-.447 16.953 2.454 33.229 8.087 48.203 1.676 4.455 3.597 8.793 5.742 13 .3.589-.297 1.237-.909.987-1.793-.732-3.545-1.54-5.25-2.427-.308-.161-.608-.333-.914-.499-10.713-10.25-18.181-24.961-18.287-44.678-.005-.812-.011-1.622.009-2.451.001-.03 0-.059 0-.09.024-.895.076-1.803.145-2.717.034-.446.076-.896.12-1.346.031-.335.067-.669.103-1.002 1.092-9.469 4.545-19.686 10.547-28.851.228-.338.452-.677.686-1.01.12-.176.242-.352.364-.527 9.195-13.216 23.844-23.962 44.535-26.598-10.04 14.817-15.911 32.678-15.911 51.884 0 30.139 14.458 56.961 36.798 73.908.593.45.348 1.386-.387 1.498-5.323.808-13.35.699-17.654.295-1.51-1.629-2.968-3.304-4.379-5.019zm9.394-89.533-2.045.985 2.243 3.294c1.181 1.734 2.553 3.058 4.049 4.138l-2.302 1.092 3.106 2.211c.794.204 1.575.438 2.345.699.025.008.05.017.075.026.35.12.698.246 1.043.377l.126.048c.347.134.691.273 1.032.418.019.008.037.016.056.024 1.492.638 2.926 1.384 4.295 2.227 4.136 2.548 7.667 5.987 10.32 10.05.66 1.011 1.269 2.059 1.816 3.143 2.236 4.428 3.498 9.427 3.498 14.717 0 16.874-12.824 30.807-29.237 32.57-9.827-11.761-16.688-26.078-19.429-41.794 2.674.34 5.327.672 7.974 1.025.848.113 1.683.41 2.53.438 2.355.076 3.445 1.52 4.023 3.549.501 1.757.906 3.541 1.437 5.288.815 2.678 2.447 4.789 4.843 6.215.899.535 2.01 1.313 3.104-.135-.795-.514-1.59-.938-2.282-1.491-3.407-2.721-4.314-6.298-3.475-10.441.125-.615.335-1.214.43-1.832.299-1.957-.328-3.083-2.261-3.6-2.423-.649-4.916-1.033-7.339-1.681-3.029-.809-6.02-1.76-9.022-2.67-.304-.092-.558-.214-.769-.367-.344-3.179-.524-6.407-.524-9.677 0-1.1.027-2.194.067-3.285 1.991 1.701 8.476 5.764 15.164 6.669 2.486.336 8.45.528 8.607.528.052-.031.105-.06.157-.09l.056.092c4.229 0 7.92 2.293 9.905 5.703.984 1.691 1.551 3.655 1.551 5.753 0 .886-.104 1.748-.294 2.576 1.511-1.628 2.437-3.808 2.437-6.205 0-.485-.039-.962-.112-1.427-.214-1.367-.733-2.633-1.484-3.727-.056-.082-.114-.163-.172-.242-.201-.262-.411-.517-.628-.765-2.731-3.121-6.739-5.098-11.202-5.098-.131 0-.261.007-.392.01-.088-.007-.176-.013-.264-.014-.496-.004-.981-.013-1.461-.026-.64-.017-1.264-.041-1.874-.073-1.953-2.507-3.464-5.376-4.408-8.492-.278-.919-.504-1.86-.681-2.818-.288-1.557-.446-3.159-.446-4.799 0-2.638.393-5.183 1.117-7.585 1.315 1.716 2.916 3.313 4.697 4.469zm17.738 13.115c.003-.002.005-.004.008-.006.145-.114.343-.136.509-.058.78.366 1.552.759 2.316 1.173.664.36 1.322.736 1.973 1.13.273.166.314.551.081.769-.227.212-.455.42-.685.625-.185.165-.465.16-.648-.008-.736-.673-1.501-1.312-2.29-1.923-.408-.316-.819-.626-1.241-.924-.266-.187-.279-.576-.023-.778zm18.464 15.463c.044-.043.088-.087.132-.131.207-.209.553-.189.731.045.607.796 1.191 1.607 1.748 2.433.027.039.053.079.079.118-.025.235-.042.39-.067.625-1.833 1.766-3.787 3.283-5.798 4.552-.286.18-.661.013-.732-.318-.214-1.007-.47-1.999-.766-2.973-.06-.197.01-.408.176-.529.81-.592 1.605-1.222 2.383-1.886.721-.617 1.426-1.261 2.114-1.936zm-20.163 46.341c-.266-.207-.238-.615.047-.794 2.242-1.407 4.32-3.053 6.198-4.902.134-.132.33-.174.507-.107 3.156 1.192 6.567 1.99 10.113 2.332 1.301.126 2.617.19 3.911.19.292 0 .583-.004.873-.012.435-.011.667.507.367.822-3.006 3.159-6.675 5.941-10.758 8.208-.121.067-.264.081-.395.037-1.427-.474-2.853-1.042-4.266-1.716-2.418-1.155-4.625-2.529-6.597-4.058zm5.779 8.364c-3.498 1.432-7.19 2.5-10.951 3.135-.147.025-.297-.018-.409-.117-2.348-2.071-4.594-4.257-6.723-6.552-.26-.28-.105-.733.269-.808 2.775-.555 5.437-1.429 7.945-2.581.171-.079.37-.051.513.072 2.555 2.195 5.484 4.109 8.695 5.642.227.108.455.214.683.317.389.177.372.73-.022.892zm11.416-15.252c-2.669-.258-5.215-.795-7.593-1.559-.322-.103-.434-.497-.226-.763 1.621-2.072 3.02-4.324 4.164-6.721.082-.172.255-.28.446-.276.144.003.288.005.434.005 3.265 0 6.578-.428 9.849-1.272 1.821-.47 3.583-1.063 5.275-1.76.347-.143.715.137.672.509-.471 4.052-2.015 7.925-4.37 11.475-.078.118-.204.197-.345.216-2.645.357-5.437.424-8.306.146zm12.812-16.307c-2.047.978-4.255 1.793-6.597 2.397-2.59.669-5.16 1.035-7.649 1.132-.337.013-.578-.318-.473-.639.486-1.496.878-3.035 1.167-4.609.034-.185.171-.332.353-.379 2.844-.726 5.666-1.812 8.398-3.24.404-.211.807-.428 1.206-.654.739-.418 1.457-.859 2.161-1.316.147-.096.295-.19.44-.287.064.229.127.459.187.689.431 1.649.749 3.309.943 4.97.057.487.105.973.141 1.46.014.199-.096.389-.277.476zm-2.427-10.774c-.771.533-1.573 1.042-2.403 1.527-.152.089-.301.181-.455.268-1.129.638-2.273 1.205-3.423 1.706-1.221.533-2.448.987-3.674 1.367-.323.1-.642-.158-.624-.496.032-.62.049-1.243.049-1.871 0-.17-.004-.339-.006-.509-.011-.795-.048-1.583-.109-2.365-.015-.188.08-.366.244-.458.275-.154.55-.312.823-.476 2.252-1.347 4.422-2.968 6.456-4.838.232-.214.605-.158.756.119.973 1.776 1.826 3.597 2.543 5.446.082.211.009.452-.177.58zm-9.419-15.227c-.133.136-.267.272-.403.406-.33.324-.665.64-1.003.949-.692.631-1.4 1.225-2.12 1.787-.249.194-.612.097-.742-.191-.212-.471-.434-.937-.665-1.397-.226-.451-.461-.897-.705-1.337-.112-.202-.067-.452.109-.602.765-.648 1.514-1.33 2.243-2.046.157-.154.311-.31.464-.466.189-.193.499-.199.692-.009.735.726 1.45 1.474 2.143 2.242.172.188.166.481-.013.664zm-5.389-5.184c-.099.101-.199.202-.301.302-.523.513-1.055 1.006-1.597 1.479-.215.188-.544.145-.712-.086-.607-.837-1.249-1.647-1.924-2.428-.087-.101-.177-.201-.266-.301.548-.484 1.088-.983 1.616-1.502.021-.021.042-.041.063-.062.17-.171.44-.195.635-.051.323.239.644.482.962.729.504.391 1.002.792 1.493 1.203.218.184.231.514.031.717zm6.076-11.271c-.629-.127-1.628-.057-1.689.055.241.216 6.049 3.719 10.421 6.095.967.526 1.864.997 2.615 1.364 1.714.839 2.676 1.689 5.628 1.643-.935 1.299-3.586 1.419-5.25.461-1.246-.717-2.483-1.451-3.721-2.186l-.273-.162c-.33-.196-.66-.392-.991-.587-.141-.083-.282-.166-.422-.249-.382-.226-.765-.45-1.148-.674-.173-.101-.347-.202-.52-.303-.414-.24-.829-.479-1.245-.716-.108-.062-.217-.124-.325-.186-.509-.288-1.02-.571-1.533-.851-.001 0-.002-.001-.002-.001-.001-.001-.001-.001-.002-.001-.134-.073-.268-.144-.402-.217h-.001c-.056-.03-.113-.059-.169-.09-.346-.186-.692-.37-1.04-.551-.153-.079-.306-.159-.459-.237-.531-.272-1.064-.539-1.602-.797-2.182-1.047-4.45-1.812-6.784-1.879-1.815-.053-3.67.317-5.555 1.303-1.986 1.04-4.039 1.668-6.11 1.618-1.61-.039-3.232-.488-4.841-1.474-.23-.141-.443-.312-.771-.546 1.142-.542 2.168-1.029 3.194-1.515-3.466-1.473-6.642-2.987-8.858-6.241.84-.405 1.649-.62 2.213-1.114.586-.513.936-1.297 1.39-1.962-.551-.315-1.076-.839-1.657-.911-.169-.021-.339-.053-.509-.091-.043-.009-.087-.02-.13-.03-.16-.039-.32-.083-.48-.135-.011-.003-.021-.006-.032-.01-.17-.057-.34-.123-.51-.194-.042-.017-.084-.036-.126-.054-.134-.059-.268-.123-.402-.19-.021-.01-.041-.019-.062-.029-.016-.008-.032-.015-.048-.024-.024-.013-.049-.028-.073-.041-.146-.078-.291-.158-.435-.245-.038-.022-.075-.045-.112-.068-.153-.094-.306-.193-.457-.296-.017-.012-.034-.022-.051-.034-.169-.117-.337-.24-.503-.368-.03-.023-.059-.046-.089-.069-.15-.117-.299-.238-.446-.364-.004-.003-.008-.006-.012-.01l.001.001c-.014-.012-.027-.022-.04-.034-.116-.1-.23-.205-.344-.309-.05-.046-.101-.089-.151-.136-.019-.017-.037-.035-.055-.053-.079-.075-.157-.154-.235-.231-.075-.074-.152-.146-.226-.222-.008-.008-.015-.016-.023-.023-.163-.167-.323-.339-.48-.513-.007-.008-.013-.015-.02-.022-.156-.174-.309-.35-.458-.53-.002-.003-.004-.005-.006-.008-.619-.745-1.181-1.538-1.663-2.337-.681-1.129-1.204-2.27-1.502-3.311 1.033.124 2.072.34 3.101.473.468.06.934.103 1.396.111.117.002.234.002.351-.001.053-.001.106-.005.159-.007.106-.005.211-.011.317-.02.053-.005.106-.009.159-.015.143-.016.285-.036.427-.061.043-.008.086-.017.128-.026.061-.012.121-.029.182-.043.061-.014.121-.027.182-.043.036-.01.072-.018.108-.029.147-.043.293-.094.439-.15.037-.014.074-.03.111-.046.134-.056.268-.117.401-.186.019-.01.039-.019.058-.029.074-.039.147-.088.22-.132s.147-.084.22-.132c.035-.023.069-.046.103-.07.149-.102.297-.211.443-.332-.12-.268-.24-.535-.358-.803l-.096-.219c-.088-.2-.174-.399-.259-.599-.037-.088-.074-.175-.111-.263-.083-.198-.165-.397-.245-.595-.031-.077-.063-.155-.094-.232-.108-.272-.214-.545-.314-.817-.954-2.595-1.493-5.184-.851-7.775v-.001c.361-1.457 1.096-2.914 2.341-4.373-.05 1.43-.222 2.862-.005 4.24.138.875.432 1.728 1.02 2.543.413.573.865 1.088 1.35 1.558.162.157.327.308.495.455 2.091-1.291 4.379-2.292 6.805-2.957 2.103-.576 4.309-.902 6.588-.933.004-.079-3.364-1.799-6.586-1.756-.739-2.398-2.698-4.349-5.308-4.471.243-.236 1.505-.388 2.005-.335 5.469.575 9.444 2.786 13.085 6.713.277.299.551.603.82.917 2.911 3.399 6.804 5.461 10.933 7.123 1.022.412 1.96 1.271 2.673 2.14.638.778.201 1.47-1.28 1.576 1.55 2.217 2.666 4.498 4.395 6.131 1.783 1.684 3.687 3.251 5.65 4.741 1.17.888 2.361 1.749 3.559 2.592 1.123.79 2.767.964 4.207 1.147 1.702.217 3.143.694 3.885 2.34.125.277-.196.756-.311 1.142l-.418.028c1.127 3.08 1.285 6.218.551 9.347-4.222 1.311-7.783.407-11.907-1.608-.462-.226-.949-.395-1.423-.592-.083-.035-.166-.075-.249-.111-.003-.001-.006-.003-.009-.004-3.067-1.318-6.111-3.302-9.178-4.586-.076-.027-.173-.053-.277-.074zm-31.313-37.47c-1.172 1.021-1.947 2.482-2.071 4.127.123-1.646.898-3.106 2.071-4.127zm9.912 6.004z"/>
        <path d="M254.475 151.092c-.071 0-.142-.001-.213-.001-.004.002-.008.005-.012.007.075-.002.149-.006.225-.006zM297.259 134.587c.703.098 1.407.189 2.112.262.222.023.444.052.667.069.098.01.191.018.279.023 2.261.13 3.3.947 3.562 2.943.025.193.053.383.064.599.016.313.057.624.133 1.418.446-.965.789-1.491.937-2.066.206-.802.151-1.6-.091-2.283-.374-1.057-1.207-1.829-2.291-1.855-.401-.009-.803-.007-1.205-.001l-.219.003c-.378.008-.757.022-1.136.04-.099.005-.197.01-.296.015-.336.017-.673.036-1.009.056-.477.029-.955.058-1.432.086h-.001c-.338.019-.675.038-1.013.053-.017.169-.034.337-.051.506.178.022.356.047.534.071.153.021.305.04.456.061zM283.51 118.544c.958 1.432.824 2.79-.747 3.382-.51.192-1.095.276-1.688.279-.593.003-1.195-.074-1.739-.203-.949-.225-1.754-1.032-2.64-1.553-2.028-1.192-4.034-2.482-6.588-2.491-.852-.003-1.764.137-2.758.47.826.5 1.271.866 1.781 1.061l.002.001c1.773.678 3.468 1.314 4.106 3.451.303 1.598 1.43 4.688 4.207 3.491.246-.102.496-.194.745-.288.129-.049.257-.102.387-.15 1.14-.414 2.302-.773 3.437-1.199.174-.065.35-.125.522-.195 1.59-.637 2.578-1.887 2.921-3.561.296-1.447-.449-2.406-1.948-2.495z"/>
    </g>
</svg>