solid Exported from Blender-3.0.1
facet normal 0.552209 -0.109841 0.826438
outer loop
vertex 0.382683 -0.000000 0.923880
vertex 0.653281 -0.270598 0.707107
vertex 0.707107 -0.000000 0.707107
endloop
endfacet
facet normal 0.552208 0.109841 0.826439
outer loop
vertex 0.382683 -0.000000 0.923880
vertex 0.653281 0.270598 0.707107
vertex 0.353553 0.146446 0.923880
endloop
endfacet
facet normal 0.194944 -0.038777 0.980048
outer loop
vertex 0.382683 -0.000000 0.923880
vertex 0.000000 -0.000000 1.000000
vertex 0.353553 -0.146447 0.923880
endloop
endfacet
facet normal 0.552209 -0.109841 0.826438
outer loop
vertex 0.353553 -0.146447 0.923880
vertex 0.653281 -0.270598 0.707107
vertex 0.382683 -0.000000 0.923880
endloop
endfacet
facet normal 0.165265 -0.110427 0.980048
outer loop
vertex 0.353553 -0.146447 0.923880
vertex 0.000000 -0.000000 1.000000
vertex 0.270598 -0.270598 0.923879
endloop
endfacet
facet normal 0.468140 -0.312801 0.826438
outer loop
vertex 0.270598 -0.270598 0.923879
vertex 0.653281 -0.270598 0.707107
vertex 0.353553 -0.146447 0.923880
endloop
endfacet
facet normal 0.312801 -0.468140 0.826439
outer loop
vertex 0.270598 -0.270598 0.923879
vertex 0.270598 -0.653282 0.707107
vertex 0.500000 -0.500000 0.707107
endloop
endfacet
facet normal 0.110427 -0.165265 0.980048
outer loop
vertex 0.270598 -0.270598 0.923879
vertex 0.000000 -0.000000 1.000000
vertex 0.146447 -0.353554 0.923879
endloop
endfacet
facet normal 0.312801 -0.468140 0.826438
outer loop
vertex 0.146447 -0.353554 0.923879
vertex 0.270598 -0.653282 0.707107
vertex 0.270598 -0.270598 0.923879
endloop
endfacet
facet normal 0.038776 -0.194944 0.980048
outer loop
vertex 0.146447 -0.353554 0.923879
vertex 0.000000 -0.000000 1.000000
vertex 0.000000 -0.382684 0.923879
endloop
endfacet
facet normal 0.109841 -0.552208 0.826439
outer loop
vertex 0.000000 -0.382684 0.923879
vertex 0.270598 -0.653282 0.707107
vertex 0.146447 -0.353554 0.923879
endloop
endfacet
facet normal -0.109841 -0.552209 0.826438
outer loop
vertex 0.000000 -0.382684 0.923879
vertex -0.270598 -0.653282 0.707107
vertex 0.000000 -0.707107 0.707107
endloop
endfacet
facet normal -0.038776 -0.194944 0.980048
outer loop
vertex 0.000000 -0.382684 0.923879
vertex 0.000000 -0.000000 1.000000
vertex -0.146447 -0.353554 0.923879
endloop
endfacet
facet normal -0.109841 -0.552208 0.826439
outer loop
vertex -0.146447 -0.353554 0.923879
vertex -0.270598 -0.653282 0.707107
vertex 0.000000 -0.382684 0.923879
endloop
endfacet
facet normal -0.110427 -0.165265 0.980047
outer loop
vertex -0.146447 -0.353554 0.923879
vertex 0.000000 -0.000000 1.000000
vertex -0.270598 -0.270598 0.923879
endloop
endfacet
facet normal -0.312801 -0.468140 0.826438
outer loop
vertex -0.270598 -0.270598 0.923879
vertex -0.270598 -0.653282 0.707107
vertex -0.146447 -0.353554 0.923879
endloop
endfacet
facet normal -0.468140 -0.312801 0.826439
outer loop
vertex -0.270598 -0.270598 0.923879
vertex -0.653281 -0.270598 0.707107
vertex -0.500000 -0.500000 0.707107
endloop
endfacet
facet normal -0.165265 -0.110427 0.980048
outer loop
vertex -0.270598 -0.270598 0.923879
vertex 0.000000 -0.000000 1.000000
vertex -0.353553 -0.146447 0.923880
endloop
endfacet
facet normal -0.468140 -0.312801 0.826438
outer loop
vertex -0.353553 -0.146447 0.923880
vertex -0.653281 -0.270598 0.707107
vertex -0.270598 -0.270598 0.923879
endloop
endfacet
facet normal -0.194944 -0.038777 0.980048
outer loop
vertex -0.353553 -0.146447 0.923880
vertex 0.000000 -0.000000 1.000000
vertex -0.382683 -0.000000 0.923880
endloop
endfacet
facet normal -0.552209 -0.109841 0.826438
outer loop
vertex -0.382683 -0.000000 0.923880
vertex -0.653281 -0.270598 0.707107
vertex -0.353553 -0.146447 0.923880
endloop
endfacet
facet normal -0.552208 0.109841 0.826439
outer loop
vertex -0.382683 -0.000000 0.923880
vertex -0.653281 0.270598 0.707107
vertex -0.707107 -0.000000 0.707107
endloop
endfacet
facet normal -0.194944 0.038777 0.980048
outer loop
vertex -0.382683 -0.000000 0.923880
vertex 0.000000 -0.000000 1.000000
vertex -0.353553 0.146446 0.923880
endloop
endfacet
facet normal -0.552208 0.109841 0.826439
outer loop
vertex -0.353553 0.146446 0.923880
vertex -0.653281 0.270598 0.707107
vertex -0.382683 -0.000000 0.923880
endloop
endfacet
facet normal -0.165265 0.110426 0.980048
outer loop
vertex -0.353553 0.146446 0.923880
vertex 0.000000 -0.000000 1.000000
vertex -0.270598 0.270598 0.923880
endloop
endfacet
facet normal -0.468140 0.312800 0.826439
outer loop
vertex -0.270598 0.270598 0.923880
vertex -0.653281 0.270598 0.707107
vertex -0.353553 0.146446 0.923880
endloop
endfacet
facet normal -0.312801 0.468140 0.826439
outer loop
vertex -0.270598 0.270598 0.923880
vertex -0.270598 0.653281 0.707107
vertex -0.500000 0.500000 0.707107
endloop
endfacet
facet normal -0.110427 0.165265 0.980048
outer loop
vertex -0.270598 0.270598 0.923880
vertex 0.000000 -0.000000 1.000000
vertex -0.146447 0.353553 0.923880
endloop
endfacet
facet normal -0.312801 0.468140 0.826438
outer loop
vertex -0.146447 0.353553 0.923880
vertex -0.270598 0.653281 0.707107
vertex -0.270598 0.270598 0.923880
endloop
endfacet
facet normal -0.038777 0.194944 0.980048
outer loop
vertex -0.146447 0.353553 0.923880
vertex 0.000000 -0.000000 1.000000
vertex -0.000000 0.382683 0.923880
endloop
endfacet
facet normal -0.109841 0.552209 0.826439
outer loop
vertex -0.000000 0.382683 0.923880
vertex -0.270598 0.653281 0.707107
vertex -0.146447 0.353553 0.923880
endloop
endfacet
facet normal 0.109841 0.552208 0.826439
outer loop
vertex -0.000000 0.382683 0.923880
vertex 0.270598 0.653281 0.707107
vertex -0.000000 0.707107 0.707107
endloop
endfacet
facet normal 0.038777 0.194944 0.980048
outer loop
vertex -0.000000 0.382683 0.923880
vertex 0.000000 -0.000000 1.000000
vertex 0.146447 0.353553 0.923880
endloop
endfacet
facet normal 0.109841 0.552209 0.826439
outer loop
vertex 0.146447 0.353553 0.923880
vertex 0.270598 0.653281 0.707107
vertex -0.000000 0.382683 0.923880
endloop
endfacet
facet normal 0.110427 0.165265 0.980048
outer loop
vertex 0.146447 0.353553 0.923880
vertex 0.000000 -0.000000 1.000000
vertex 0.270598 0.270598 0.923880
endloop
endfacet
facet normal 0.312801 0.468140 0.826439
outer loop
vertex 0.270598 0.270598 0.923880
vertex 0.270598 0.653281 0.707107
vertex 0.146447 0.353553 0.923880
endloop
endfacet
facet normal 0.468140 0.312801 0.826438
outer loop
vertex 0.270598 0.270598 0.923880
vertex 0.653281 0.270598 0.707107
vertex 0.500000 0.500000 0.707107
endloop
endfacet
facet normal 0.165265 0.110426 0.980048
outer loop
vertex 0.270598 0.270598 0.923880
vertex 0.000000 -0.000000 1.000000
vertex 0.353553 0.146446 0.923880
endloop
endfacet
facet normal 0.468140 0.312800 0.826439
outer loop
vertex 0.353553 0.146446 0.923880
vertex 0.653281 0.270598 0.707107
vertex 0.270598 0.270598 0.923880
endloop
endfacet
facet normal 0.194944 0.038777 0.980048
outer loop
vertex 0.353553 0.146446 0.923880
vertex 0.000000 -0.000000 1.000000
vertex 0.382683 -0.000000 0.923880
endloop
endfacet
facet normal 0.552208 0.109841 0.826439
outer loop
vertex 0.707107 -0.000000 0.707107
vertex 0.653281 0.270598 0.707107
vertex 0.382683 -0.000000 0.923880
endloop
endfacet
facet normal 0.820326 0.163172 0.548124
outer loop
vertex 0.707107 -0.000000 0.707107
vertex 0.923880 -0.000000 0.382683
vertex 0.653281 0.270598 0.707107
endloop
endfacet
facet normal 0.820326 -0.163173 0.548124
outer loop
vertex 0.653281 -0.270598 0.707107
vertex 0.923880 -0.000000 0.382683
vertex 0.707107 -0.000000 0.707107
endloop
endfacet
facet normal 0.695438 -0.464677 0.548124
outer loop
vertex 0.653281 -0.270598 0.707107
vertex 0.653281 -0.653282 0.382683
vertex 0.853553 -0.353553 0.382683
endloop
endfacet
facet normal 0.468140 -0.312801 0.826439
outer loop
vertex 0.500000 -0.500000 0.707107
vertex 0.653281 -0.270598 0.707107
vertex 0.270598 -0.270598 0.923879
endloop
endfacet
facet normal 0.695439 -0.464677 0.548124
outer loop
vertex 0.500000 -0.500000 0.707107
vertex 0.653281 -0.653282 0.382683
vertex 0.653281 -0.270598 0.707107
endloop
endfacet
facet normal 0.464677 -0.695439 0.548124
outer loop
vertex 0.270598 -0.653282 0.707107
vertex 0.653281 -0.653282 0.382683
vertex 0.500000 -0.500000 0.707107
endloop
endfacet
facet normal 0.163173 -0.820326 0.548124
outer loop
vertex 0.270598 -0.653282 0.707107
vertex 0.000000 -0.923880 0.382683
vertex 0.353553 -0.853553 0.382683
endloop
endfacet
facet normal 0.109841 -0.552209 0.826438
outer loop
vertex 0.000000 -0.707107 0.707107
vertex 0.270598 -0.653282 0.707107
vertex 0.000000 -0.382684 0.923879
endloop
endfacet
facet normal 0.163173 -0.820326 0.548124
outer loop
vertex 0.000000 -0.707107 0.707107
vertex 0.000000 -0.923880 0.382683
vertex 0.270598 -0.653282 0.707107
endloop
endfacet
facet normal -0.163173 -0.820326 0.548124
outer loop
vertex -0.270598 -0.653282 0.707107
vertex 0.000000 -0.923880 0.382683
vertex 0.000000 -0.707107 0.707107
endloop
endfacet
facet normal -0.464677 -0.695439 0.548124
outer loop
vertex -0.270598 -0.653282 0.707107
vertex -0.653281 -0.653282 0.382683
vertex -0.353553 -0.853553 0.382683
endloop
endfacet
facet normal -0.312801 -0.468140 0.826438
outer loop
vertex -0.500000 -0.500000 0.707107
vertex -0.270598 -0.653282 0.707107
vertex -0.270598 -0.270598 0.923879
endloop
endfacet
facet normal -0.464677 -0.695439 0.548124
outer loop
vertex -0.500000 -0.500000 0.707107
vertex -0.653281 -0.653282 0.382683
vertex -0.270598 -0.653282 0.707107
endloop
endfacet
facet normal -0.695439 -0.464677 0.548124
outer loop
vertex -0.653281 -0.270598 0.707107
vertex -0.653281 -0.653282 0.382683
vertex -0.500000 -0.500000 0.707107
endloop
endfacet
facet normal -0.820326 -0.163173 0.548124
outer loop
vertex -0.653281 -0.270598 0.707107
vertex -0.923880 -0.000000 0.382683
vertex -0.853553 -0.353553 0.382683
endloop
endfacet
facet normal -0.552209 -0.109841 0.826438
outer loop
vertex -0.707107 -0.000000 0.707107
vertex -0.653281 -0.270598 0.707107
vertex -0.382683 -0.000000 0.923880
endloop
endfacet
facet normal -0.820326 -0.163173 0.548124
outer loop
vertex -0.707107 -0.000000 0.707107
vertex -0.923880 -0.000000 0.382683
vertex -0.653281 -0.270598 0.707107
endloop
endfacet
facet normal -0.820326 0.163172 0.548124
outer loop
vertex -0.653281 0.270598 0.707107
vertex -0.923880 -0.000000 0.382683
vertex -0.707107 -0.000000 0.707107
endloop
endfacet
facet normal -0.695439 0.464677 0.548124
outer loop
vertex -0.653281 0.270598 0.707107
vertex -0.653281 0.653281 0.382684
vertex -0.853553 0.353553 0.382683
endloop
endfacet
facet normal -0.468140 0.312801 0.826438
outer loop
vertex -0.500000 0.500000 0.707107
vertex -0.653281 0.270598 0.707107
vertex -0.270598 0.270598 0.923880
endloop
endfacet
facet normal -0.695439 0.464677 0.548124
outer loop
vertex -0.500000 0.500000 0.707107
vertex -0.653281 0.653281 0.382684
vertex -0.653281 0.270598 0.707107
endloop
endfacet
facet normal -0.464677 0.695439 0.548124
outer loop
vertex -0.270598 0.653281 0.707107
vertex -0.653281 0.653281 0.382684
vertex -0.500000 0.500000 0.707107
endloop
endfacet
facet normal -0.163173 0.820326 0.548124
outer loop
vertex -0.270598 0.653281 0.707107
vertex -0.000000 0.923879 0.382684
vertex -0.353553 0.853553 0.382684
endloop
endfacet
facet normal -0.109841 0.552208 0.826439
outer loop
vertex -0.000000 0.707107 0.707107
vertex -0.270598 0.653281 0.707107
vertex -0.000000 0.382683 0.923880
endloop
endfacet
facet normal -0.163173 0.820326 0.548124
outer loop
vertex -0.000000 0.707107 0.707107
vertex -0.000000 0.923879 0.382684
vertex -0.270598 0.653281 0.707107
endloop
endfacet
facet normal 0.163173 0.820326 0.548124
outer loop
vertex 0.270598 0.653281 0.707107
vertex -0.000000 0.923879 0.382684
vertex -0.000000 0.707107 0.707107
endloop
endfacet
facet normal 0.464677 0.695438 0.548124
outer loop
vertex 0.270598 0.653281 0.707107
vertex 0.653281 0.653281 0.382684
vertex 0.353553 0.853553 0.382684
endloop
endfacet
facet normal 0.312801 0.468140 0.826439
outer loop
vertex 0.500000 0.500000 0.707107
vertex 0.270598 0.653281 0.707107
vertex 0.270598 0.270598 0.923880
endloop
endfacet
facet normal 0.464677 0.695439 0.548124
outer loop
vertex 0.500000 0.500000 0.707107
vertex 0.653281 0.653281 0.382684
vertex 0.270598 0.653281 0.707107
endloop
endfacet
facet normal 0.820326 0.163173 0.548124
outer loop
vertex 0.653281 0.270598 0.707107
vertex 0.923880 -0.000000 0.382683
vertex 0.853553 0.353553 0.382683
endloop
endfacet
facet normal 0.695439 0.464677 0.548124
outer loop
vertex 0.653281 0.270598 0.707107
vertex 0.653281 0.653281 0.382684
vertex 0.500000 0.500000 0.707107
endloop
endfacet
facet normal 0.962637 -0.191481 0.191480
outer loop
vertex 0.923880 -0.000000 0.382683
vertex 0.923880 -0.382683 -0.000000
vertex 1.000000 -0.000000 0.000000
endloop
endfacet
facet normal 0.962637 0.191480 0.191480
outer loop
vertex 0.923880 -0.000000 0.382683
vertex 0.923880 0.382683 0.000000
vertex 0.853553 0.353553 0.382683
endloop
endfacet
facet normal 0.820326 -0.163173 0.548124
outer loop
vertex 0.853553 -0.353553 0.382683
vertex 0.923880 -0.000000 0.382683
vertex 0.653281 -0.270598 0.707107
endloop
endfacet
facet normal 0.962637 -0.191480 0.191480
outer loop
vertex 0.853553 -0.353553 0.382683
vertex 0.923880 -0.382683 -0.000000
vertex 0.923880 -0.000000 0.382683
endloop
endfacet
facet normal 0.816084 -0.545291 0.191480
outer loop
vertex 0.653281 -0.653282 0.382683
vertex 0.923880 -0.382683 -0.000000
vertex 0.853553 -0.353553 0.382683
endloop
endfacet
facet normal 0.545290 -0.816085 0.191480
outer loop
vertex 0.653281 -0.653282 0.382683
vertex 0.382683 -0.923880 -0.000000
vertex 0.707107 -0.707107 -0.000000
endloop
endfacet
facet normal 0.464677 -0.695439 0.548124
outer loop
vertex 0.353553 -0.853553 0.382683
vertex 0.653281 -0.653282 0.382683
vertex 0.270598 -0.653282 0.707107
endloop
endfacet
facet normal 0.545290 -0.816084 0.191481
outer loop
vertex 0.353553 -0.853553 0.382683
vertex 0.382683 -0.923880 -0.000000
vertex 0.653281 -0.653282 0.382683
endloop
endfacet
facet normal 0.191480 -0.962637 0.191480
outer loop
vertex 0.000000 -0.923880 0.382683
vertex 0.382683 -0.923880 -0.000000
vertex 0.353553 -0.853553 0.382683
endloop
endfacet
facet normal -0.191481 -0.962637 0.191480
outer loop
vertex 0.000000 -0.923880 0.382683
vertex -0.382683 -0.923880 -0.000000
vertex 0.000000 -1.000000 -0.000000
endloop
endfacet
facet normal -0.163173 -0.820326 0.548124
outer loop
vertex -0.353553 -0.853553 0.382683
vertex 0.000000 -0.923880 0.382683
vertex -0.270598 -0.653282 0.707107
endloop
endfacet
facet normal -0.191480 -0.962637 0.191480
outer loop
vertex -0.353553 -0.853553 0.382683
vertex -0.382683 -0.923880 -0.000000
vertex 0.000000 -0.923880 0.382683
endloop
endfacet
facet normal -0.545290 -0.816084 0.191480
outer loop
vertex -0.653281 -0.653282 0.382683
vertex -0.382683 -0.923880 -0.000000
vertex -0.353553 -0.853553 0.382683
endloop
endfacet
facet normal -0.816085 -0.545290 0.191481
outer loop
vertex -0.653281 -0.653282 0.382683
vertex -0.923880 -0.382683 -0.000000
vertex -0.707107 -0.707107 -0.000000
endloop
endfacet
facet normal -0.695438 -0.464677 0.548124
outer loop
vertex -0.853553 -0.353553 0.382683
vertex -0.653281 -0.653282 0.382683
vertex -0.653281 -0.270598 0.707107
endloop
endfacet
facet normal -0.816084 -0.545291 0.191480
outer loop
vertex -0.853553 -0.353553 0.382683
vertex -0.923880 -0.382683 -0.000000
vertex -0.653281 -0.653282 0.382683
endloop
endfacet
facet normal -0.962637 -0.191480 0.191480
outer loop
vertex -0.923880 -0.000000 0.382683
vertex -0.923880 -0.382683 -0.000000
vertex -0.853553 -0.353553 0.382683
endloop
endfacet
facet normal -0.962637 0.191480 0.191481
outer loop
vertex -0.923880 -0.000000 0.382683
vertex -0.923880 0.382683 0.000000
vertex -1.000000 -0.000000 0.000000
endloop
endfacet
facet normal -0.820326 0.163172 0.548124
outer loop
vertex -0.853553 0.353553 0.382683
vertex -0.923880 -0.000000 0.382683
vertex -0.653281 0.270598 0.707107
endloop
endfacet
facet normal -0.962637 0.191480 0.191480
outer loop
vertex -0.853553 0.353553 0.382683
vertex -0.923880 0.382683 0.000000
vertex -0.923880 -0.000000 0.382683
endloop
endfacet
facet normal -0.816084 0.545291 0.191480
outer loop
vertex -0.653281 0.653281 0.382684
vertex -0.923880 0.382683 0.000000
vertex -0.853553 0.353553 0.382683
endloop
endfacet
facet normal -0.545290 0.816085 0.191480
outer loop
vertex -0.653281 0.653281 0.382684
vertex -0.382683 0.923880 0.000000
vertex -0.707107 0.707107 0.000000
endloop
endfacet
facet normal -0.464677 0.695438 0.548125
outer loop
vertex -0.353553 0.853553 0.382684
vertex -0.653281 0.653281 0.382684
vertex -0.270598 0.653281 0.707107
endloop
endfacet
facet normal -0.545290 0.816084 0.191481
outer loop
vertex -0.353553 0.853553 0.382684
vertex -0.382683 0.923880 0.000000
vertex -0.653281 0.653281 0.382684
endloop
endfacet
facet normal -0.191480 0.962637 0.191481
outer loop
vertex -0.000000 0.923879 0.382684
vertex -0.382683 0.923880 0.000000
vertex -0.353553 0.853553 0.382684
endloop
endfacet
facet normal 0.191481 0.962637 0.191480
outer loop
vertex -0.000000 0.923879 0.382684
vertex 0.382683 0.923880 0.000000
vertex -0.000000 1.000000 0.000000
endloop
endfacet
facet normal 0.163173 0.820326 0.548124
outer loop
vertex 0.353553 0.853553 0.382684
vertex -0.000000 0.923879 0.382684
vertex 0.270598 0.653281 0.707107
endloop
endfacet
facet normal 0.191480 0.962637 0.191481
outer loop
vertex 0.353553 0.853553 0.382684
vertex 0.382683 0.923880 0.000000
vertex -0.000000 0.923879 0.382684
endloop
endfacet
facet normal 0.545290 0.816084 0.191480
outer loop
vertex 0.653281 0.653281 0.382684
vertex 0.382683 0.923880 0.000000
vertex 0.353553 0.853553 0.382684
endloop
endfacet
facet normal 0.816085 0.545290 0.191481
outer loop
vertex 0.653281 0.653281 0.382684
vertex 0.923880 0.382683 0.000000
vertex 0.707107 0.707107 0.000000
endloop
endfacet
facet normal 0.695439 0.464677 0.548124
outer loop
vertex 0.853553 0.353553 0.382683
vertex 0.653281 0.653281 0.382684
vertex 0.653281 0.270598 0.707107
endloop
endfacet
facet normal 0.816084 0.545291 0.191480
outer loop
vertex 0.853553 0.353553 0.382683
vertex 0.923880 0.382683 0.000000
vertex 0.653281 0.653281 0.382684
endloop
endfacet
facet normal 0.962637 0.191480 0.191481
outer loop
vertex 1.000000 -0.000000 0.000000
vertex 0.923880 0.382683 0.000000
vertex 0.923880 -0.000000 0.382683
endloop
endfacet
facet normal 0.962637 0.191481 -0.191480
outer loop
vertex 1.000000 -0.000000 0.000000
vertex 0.923880 0.000000 -0.382683
vertex 0.923880 0.382683 0.000000
endloop
endfacet
facet normal 0.962637 -0.191480 -0.191481
outer loop
vertex 0.923880 -0.382683 -0.000000
vertex 0.923880 0.000000 -0.382683
vertex 1.000000 -0.000000 0.000000
endloop
endfacet
facet normal 0.816084 -0.545290 -0.191480
outer loop
vertex 0.923880 -0.382683 -0.000000
vertex 0.653281 -0.653281 -0.382684
vertex 0.853553 -0.353553 -0.382683
endloop
endfacet
facet normal 0.816085 -0.545290 0.191481
outer loop
vertex 0.707107 -0.707107 -0.000000
vertex 0.923880 -0.382683 -0.000000
vertex 0.653281 -0.653282 0.382683
endloop
endfacet
facet normal 0.816084 -0.545290 -0.191481
outer loop
vertex 0.707107 -0.707107 -0.000000
vertex 0.653281 -0.653281 -0.382684
vertex 0.923880 -0.382683 -0.000000
endloop
endfacet
facet normal 0.545290 -0.816085 -0.191480
outer loop
vertex 0.382683 -0.923880 -0.000000
vertex 0.653281 -0.653281 -0.382684
vertex 0.707107 -0.707107 -0.000000
endloop
endfacet
facet normal 0.191480 -0.962637 -0.191481
outer loop
vertex 0.382683 -0.923880 -0.000000
vertex 0.000000 -0.923879 -0.382684
vertex 0.353553 -0.853553 -0.382684
endloop
endfacet
facet normal 0.191481 -0.962637 0.191480
outer loop
vertex 0.000000 -1.000000 -0.000000
vertex 0.382683 -0.923880 -0.000000
vertex 0.000000 -0.923880 0.382683
endloop
endfacet
facet normal 0.191481 -0.962637 -0.191480
outer loop
vertex 0.000000 -1.000000 -0.000000
vertex 0.000000 -0.923879 -0.382684
vertex 0.382683 -0.923880 -0.000000
endloop
endfacet
facet normal -0.191481 -0.962637 -0.191480
outer loop
vertex -0.382683 -0.923880 -0.000000
vertex 0.000000 -0.923879 -0.382684
vertex 0.000000 -1.000000 -0.000000
endloop
endfacet
facet normal -0.545290 -0.816084 -0.191481
outer loop
vertex -0.382683 -0.923880 -0.000000
vertex -0.653281 -0.653281 -0.382684
vertex -0.353553 -0.853553 -0.382684
endloop
endfacet
facet normal -0.545290 -0.816085 0.191480
outer loop
vertex -0.707107 -0.707107 -0.000000
vertex -0.382683 -0.923880 -0.000000
vertex -0.653281 -0.653282 0.382683
endloop
endfacet
facet normal -0.545290 -0.816085 -0.191480
outer loop
vertex -0.707107 -0.707107 -0.000000
vertex -0.653281 -0.653281 -0.382684
vertex -0.382683 -0.923880 -0.000000
endloop
endfacet
facet normal -0.816084 -0.545290 -0.191481
outer loop
vertex -0.923880 -0.382683 -0.000000
vertex -0.653281 -0.653281 -0.382684
vertex -0.707107 -0.707107 -0.000000
endloop
endfacet
facet normal -0.962637 -0.191480 -0.191480
outer loop
vertex -0.923880 -0.382683 -0.000000
vertex -0.923880 0.000000 -0.382683
vertex -0.853553 -0.353553 -0.382683
endloop
endfacet
facet normal -0.962637 -0.191481 0.191480
outer loop
vertex -1.000000 -0.000000 0.000000
vertex -0.923880 -0.382683 -0.000000
vertex -0.923880 -0.000000 0.382683
endloop
endfacet
facet normal -0.962637 -0.191480 -0.191481
outer loop
vertex -1.000000 -0.000000 0.000000
vertex -0.923880 0.000000 -0.382683
vertex -0.923880 -0.382683 -0.000000
endloop
endfacet
facet normal -0.962637 0.191481 -0.191480
outer loop
vertex -0.923880 0.382683 0.000000
vertex -0.923880 0.000000 -0.382683
vertex -1.000000 -0.000000 0.000000
endloop
endfacet
facet normal -0.816084 0.545291 -0.191480
outer loop
vertex -0.923880 0.382683 0.000000
vertex -0.653281 0.653282 -0.382683
vertex -0.853553 0.353553 -0.382683
endloop
endfacet
facet normal -0.816084 0.545290 0.191481
outer loop
vertex -0.707107 0.707107 0.000000
vertex -0.923880 0.382683 0.000000
vertex -0.653281 0.653281 0.382684
endloop
endfacet
facet normal -0.816085 0.545290 -0.191481
outer loop
vertex -0.707107 0.707107 0.000000
vertex -0.653281 0.653282 -0.382683
vertex -0.923880 0.382683 0.000000
endloop
endfacet
facet normal -0.545290 0.816085 -0.191480
outer loop
vertex -0.382683 0.923880 0.000000
vertex -0.653281 0.653282 -0.382683
vertex -0.707107 0.707107 0.000000
endloop
endfacet
facet normal -0.191480 0.962637 -0.191480
outer loop
vertex -0.382683 0.923880 0.000000
vertex -0.000000 0.923880 -0.382683
vertex -0.353553 0.853553 -0.382683
endloop
endfacet
facet normal -0.191481 0.962637 0.191480
outer loop
vertex -0.000000 1.000000 0.000000
vertex -0.382683 0.923880 0.000000
vertex -0.000000 0.923879 0.382684
endloop
endfacet
facet normal -0.191481 0.962637 -0.191480
outer loop
vertex -0.000000 1.000000 0.000000
vertex -0.000000 0.923880 -0.382683
vertex -0.382683 0.923880 0.000000
endloop
endfacet
facet normal 0.191481 0.962637 -0.191480
outer loop
vertex 0.382683 0.923880 0.000000
vertex -0.000000 0.923880 -0.382683
vertex -0.000000 1.000000 0.000000
endloop
endfacet
facet normal 0.545290 0.816084 -0.191481
outer loop
vertex 0.382683 0.923880 0.000000
vertex 0.653281 0.653282 -0.382683
vertex 0.353553 0.853553 -0.382683
endloop
endfacet
facet normal 0.545290 0.816085 0.191480
outer loop
vertex 0.707107 0.707107 0.000000
vertex 0.382683 0.923880 0.000000
vertex 0.653281 0.653281 0.382684
endloop
endfacet
facet normal 0.545290 0.816085 -0.191480
outer loop
vertex 0.707107 0.707107 0.000000
vertex 0.653281 0.653282 -0.382683
vertex 0.382683 0.923880 0.000000
endloop
endfacet
facet normal 0.962637 0.191480 -0.191480
outer loop
vertex 0.923880 0.382683 0.000000
vertex 0.923880 0.000000 -0.382683
vertex 0.853553 0.353553 -0.382683
endloop
endfacet
facet normal 0.816085 0.545290 -0.191481
outer loop
vertex 0.923880 0.382683 0.000000
vertex 0.653281 0.653282 -0.382683
vertex 0.707107 0.707107 0.000000
endloop
endfacet
facet normal 0.820326 -0.163173 -0.548124
outer loop
vertex 0.923880 0.000000 -0.382683
vertex 0.653281 -0.270598 -0.707107
vertex 0.707107 0.000000 -0.707107
endloop
endfacet
facet normal 0.820326 0.163173 -0.548124
outer loop
vertex 0.923880 0.000000 -0.382683
vertex 0.653281 0.270598 -0.707107
vertex 0.853553 0.353553 -0.382683
endloop
endfacet
facet normal 0.962637 -0.191480 -0.191480
outer loop
vertex 0.853553 -0.353553 -0.382683
vertex 0.923880 0.000000 -0.382683
vertex 0.923880 -0.382683 -0.000000
endloop
endfacet
facet normal 0.820326 -0.163172 -0.548124
outer loop
vertex 0.853553 -0.353553 -0.382683
vertex 0.653281 -0.270598 -0.707107
vertex 0.923880 0.000000 -0.382683
endloop
endfacet
facet normal 0.695439 -0.464677 -0.548124
outer loop
vertex 0.653281 -0.653281 -0.382684
vertex 0.653281 -0.270598 -0.707107
vertex 0.853553 -0.353553 -0.382683
endloop
endfacet
facet normal 0.464677 -0.695439 -0.548124
outer loop
vertex 0.653281 -0.653281 -0.382684
vertex 0.270598 -0.653281 -0.707107
vertex 0.500000 -0.500000 -0.707107
endloop
endfacet
facet normal 0.545290 -0.816084 -0.191481
outer loop
vertex 0.353553 -0.853553 -0.382684
vertex 0.653281 -0.653281 -0.382684
vertex 0.382683 -0.923880 -0.000000
endloop
endfacet
facet normal 0.464677 -0.695438 -0.548125
outer loop
vertex 0.353553 -0.853553 -0.382684
vertex 0.270598 -0.653281 -0.707107
vertex 0.653281 -0.653281 -0.382684
endloop
endfacet
facet normal 0.163173 -0.820326 -0.548124
outer loop
vertex 0.000000 -0.923879 -0.382684
vertex 0.270598 -0.653281 -0.707107
vertex 0.353553 -0.853553 -0.382684
endloop
endfacet
facet normal -0.163173 -0.820326 -0.548124
outer loop
vertex 0.000000 -0.923879 -0.382684
vertex -0.270598 -0.653281 -0.707107
vertex 0.000000 -0.707107 -0.707107
endloop
endfacet
facet normal -0.191480 -0.962637 -0.191481
outer loop
vertex -0.353553 -0.853553 -0.382684
vertex 0.000000 -0.923879 -0.382684
vertex -0.382683 -0.923880 -0.000000
endloop
endfacet
facet normal -0.163173 -0.820326 -0.548124
outer loop
vertex -0.353553 -0.853553 -0.382684
vertex -0.270598 -0.653281 -0.707107
vertex 0.000000 -0.923879 -0.382684
endloop
endfacet
facet normal -0.464677 -0.695438 -0.548125
outer loop
vertex -0.653281 -0.653281 -0.382684
vertex -0.270598 -0.653281 -0.707107
vertex -0.353553 -0.853553 -0.382684
endloop
endfacet
facet normal -0.695439 -0.464677 -0.548124
outer loop
vertex -0.653281 -0.653281 -0.382684
vertex -0.653281 -0.270598 -0.707107
vertex -0.500000 -0.500000 -0.707107
endloop
endfacet
facet normal -0.816084 -0.545291 -0.191480
outer loop
vertex -0.853553 -0.353553 -0.382683
vertex -0.653281 -0.653281 -0.382684
vertex -0.923880 -0.382683 -0.000000
endloop
endfacet
facet normal -0.695439 -0.464677 -0.548124
outer loop
vertex -0.853553 -0.353553 -0.382683
vertex -0.653281 -0.270598 -0.707107
vertex -0.653281 -0.653281 -0.382684
endloop
endfacet
facet normal -0.820326 -0.163172 -0.548124
outer loop
vertex -0.923880 0.000000 -0.382683
vertex -0.653281 -0.270598 -0.707107
vertex -0.853553 -0.353553 -0.382683
endloop
endfacet
facet normal -0.820326 0.163173 -0.548124
outer loop
vertex -0.923880 0.000000 -0.382683
vertex -0.653281 0.270598 -0.707107
vertex -0.707107 0.000000 -0.707107
endloop
endfacet
facet normal -0.962637 0.191480 -0.191480
outer loop
vertex -0.853553 0.353553 -0.382683
vertex -0.923880 0.000000 -0.382683
vertex -0.923880 0.382683 0.000000
endloop
endfacet
facet normal -0.820326 0.163173 -0.548124
outer loop
vertex -0.853553 0.353553 -0.382683
vertex -0.653281 0.270598 -0.707107
vertex -0.923880 0.000000 -0.382683
endloop
endfacet
facet normal -0.695438 0.464677 -0.548124
outer loop
vertex -0.653281 0.653282 -0.382683
vertex -0.653281 0.270598 -0.707107
vertex -0.853553 0.353553 -0.382683
endloop
endfacet
facet normal -0.464677 0.695439 -0.548124
outer loop
vertex -0.653281 0.653282 -0.382683
vertex -0.270598 0.653282 -0.707107
vertex -0.500000 0.500000 -0.707107
endloop
endfacet
facet normal -0.545290 0.816084 -0.191481
outer loop
vertex -0.353553 0.853553 -0.382683
vertex -0.653281 0.653282 -0.382683
vertex -0.382683 0.923880 0.000000
endloop
endfacet
facet normal -0.464677 0.695439 -0.548124
outer loop
vertex -0.353553 0.853553 -0.382683
vertex -0.270598 0.653282 -0.707107
vertex -0.653281 0.653282 -0.382683
endloop
endfacet
facet normal -0.163173 0.820326 -0.548124
outer loop
vertex -0.000000 0.923880 -0.382683
vertex -0.270598 0.653282 -0.707107
vertex -0.353553 0.853553 -0.382683
endloop
endfacet
facet normal 0.163173 0.820326 -0.548124
outer loop
vertex -0.000000 0.923880 -0.382683
vertex 0.270598 0.653282 -0.707107
vertex -0.000000 0.707107 -0.707107
endloop
endfacet
facet normal 0.191480 0.962637 -0.191480
outer loop
vertex 0.353553 0.853553 -0.382683
vertex -0.000000 0.923880 -0.382683
vertex 0.382683 0.923880 0.000000
endloop
endfacet
facet normal 0.163173 0.820326 -0.548124
outer loop
vertex 0.353553 0.853553 -0.382683
vertex 0.270598 0.653282 -0.707107
vertex -0.000000 0.923880 -0.382683
endloop
endfacet
facet normal 0.464677 0.695439 -0.548124
outer loop
vertex 0.653281 0.653282 -0.382683
vertex 0.270598 0.653282 -0.707107
vertex 0.353553 0.853553 -0.382683
endloop
endfacet
facet normal 0.695439 0.464677 -0.548124
outer loop
vertex 0.653281 0.653282 -0.382683
vertex 0.653281 0.270598 -0.707107
vertex 0.500000 0.500000 -0.707107
endloop
endfacet
facet normal 0.816084 0.545291 -0.191480
outer loop
vertex 0.853553 0.353553 -0.382683
vertex 0.653281 0.653282 -0.382683
vertex 0.923880 0.382683 0.000000
endloop
endfacet
facet normal 0.695438 0.464677 -0.548124
outer loop
vertex 0.853553 0.353553 -0.382683
vertex 0.653281 0.270598 -0.707107
vertex 0.653281 0.653282 -0.382683
endloop
endfacet
facet normal 0.820326 0.163173 -0.548124
outer loop
vertex 0.707107 0.000000 -0.707107
vertex 0.653281 0.270598 -0.707107
vertex 0.923880 0.000000 -0.382683
endloop
endfacet
facet normal 0.552209 0.109841 -0.826438
outer loop
vertex 0.707107 0.000000 -0.707107
vertex 0.382683 0.000000 -0.923880
vertex 0.653281 0.270598 -0.707107
endloop
endfacet
facet normal 0.552208 -0.109841 -0.826439
outer loop
vertex 0.653281 -0.270598 -0.707107
vertex 0.382683 0.000000 -0.923880
vertex 0.707107 0.000000 -0.707107
endloop
endfacet
facet normal 0.468140 -0.312801 -0.826439
outer loop
vertex 0.653281 -0.270598 -0.707107
vertex 0.270598 -0.270598 -0.923880
vertex 0.353553 -0.146446 -0.923880
endloop
endfacet
facet normal 0.695439 -0.464677 -0.548124
outer loop
vertex 0.500000 -0.500000 -0.707107
vertex 0.653281 -0.270598 -0.707107
vertex 0.653281 -0.653281 -0.382684
endloop
endfacet
facet normal 0.468140 -0.312801 -0.826438
outer loop
vertex 0.500000 -0.500000 -0.707107
vertex 0.270598 -0.270598 -0.923880
vertex 0.653281 -0.270598 -0.707107
endloop
endfacet
facet normal 0.312801 -0.468140 -0.826439
outer loop
vertex 0.270598 -0.653281 -0.707107
vertex 0.270598 -0.270598 -0.923880
vertex 0.500000 -0.500000 -0.707107
endloop
endfacet
facet normal 0.109841 -0.552209 -0.826439
outer loop
vertex 0.270598 -0.653281 -0.707107
vertex 0.000000 -0.382683 -0.923880
vertex 0.146447 -0.353553 -0.923880
endloop
endfacet
facet normal 0.163173 -0.820326 -0.548124
outer loop
vertex 0.000000 -0.707107 -0.707107
vertex 0.270598 -0.653281 -0.707107
vertex 0.000000 -0.923879 -0.382684
endloop
endfacet
facet normal 0.109841 -0.552208 -0.826439
outer loop
vertex 0.000000 -0.707107 -0.707107
vertex 0.000000 -0.382683 -0.923880
vertex 0.270598 -0.653281 -0.707107
endloop
endfacet
facet normal -0.109841 -0.552208 -0.826439
outer loop
vertex -0.270598 -0.653281 -0.707107
vertex 0.000000 -0.382683 -0.923880
vertex 0.000000 -0.707107 -0.707107
endloop
endfacet
facet normal -0.312801 -0.468140 -0.826439
outer loop
vertex -0.270598 -0.653281 -0.707107
vertex -0.270598 -0.270598 -0.923880
vertex -0.146447 -0.353553 -0.923880
endloop
endfacet
facet normal -0.464677 -0.695439 -0.548124
outer loop
vertex -0.500000 -0.500000 -0.707107
vertex -0.270598 -0.653281 -0.707107
vertex -0.653281 -0.653281 -0.382684
endloop
endfacet
facet normal -0.312801 -0.468140 -0.826439
outer loop
vertex -0.500000 -0.500000 -0.707107
vertex -0.270598 -0.270598 -0.923880
vertex -0.270598 -0.653281 -0.707107
endloop
endfacet
facet normal -0.468140 -0.312801 -0.826438
outer loop
vertex -0.653281 -0.270598 -0.707107
vertex -0.270598 -0.270598 -0.923880
vertex -0.500000 -0.500000 -0.707107
endloop
endfacet
facet normal -0.552208 -0.109841 -0.826439
outer loop
vertex -0.653281 -0.270598 -0.707107
vertex -0.382683 0.000000 -0.923880
vertex -0.353553 -0.146446 -0.923880
endloop
endfacet
facet normal -0.820326 -0.163172 -0.548124
outer loop
vertex -0.707107 0.000000 -0.707107
vertex -0.653281 -0.270598 -0.707107
vertex -0.923880 0.000000 -0.382683
endloop
endfacet
facet normal -0.552208 -0.109841 -0.826439
outer loop
vertex -0.707107 0.000000 -0.707107
vertex -0.382683 0.000000 -0.923880
vertex -0.653281 -0.270598 -0.707107
endloop
endfacet
facet normal -0.552209 0.109841 -0.826438
outer loop
vertex -0.653281 0.270598 -0.707107
vertex -0.382683 0.000000 -0.923880
vertex -0.707107 0.000000 -0.707107
endloop
endfacet
facet normal -0.468140 0.312801 -0.826438
outer loop
vertex -0.653281 0.270598 -0.707107
vertex -0.270598 0.270598 -0.923879
vertex -0.353553 0.146447 -0.923880
endloop
endfacet
facet normal -0.695439 0.464677 -0.548124
outer loop
vertex -0.500000 0.500000 -0.707107
vertex -0.653281 0.270598 -0.707107
vertex -0.653281 0.653282 -0.382683
endloop
endfacet
facet normal -0.468140 0.312801 -0.826439
outer loop
vertex -0.500000 0.500000 -0.707107
vertex -0.270598 0.270598 -0.923879
vertex -0.653281 0.270598 -0.707107
endloop
endfacet
facet normal -0.312801 0.468140 -0.826438
outer loop
vertex -0.270598 0.653282 -0.707107
vertex -0.270598 0.270598 -0.923879
vertex -0.500000 0.500000 -0.707107
endloop
endfacet
facet normal -0.109841 0.552208 -0.826439
outer loop
vertex -0.270598 0.653282 -0.707107
vertex -0.000000 0.382684 -0.923879
vertex -0.146447 0.353554 -0.923879
endloop
endfacet
facet normal -0.163173 0.820326 -0.548124
outer loop
vertex -0.000000 0.707107 -0.707107
vertex -0.270598 0.653282 -0.707107
vertex -0.000000 0.923880 -0.382683
endloop
endfacet
facet normal -0.109841 0.552209 -0.826438
outer loop
vertex -0.000000 0.707107 -0.707107
vertex -0.000000 0.382684 -0.923879
vertex -0.270598 0.653282 -0.707107
endloop
endfacet
facet normal 0.109841 0.552209 -0.826438
outer loop
vertex 0.270598 0.653282 -0.707107
vertex -0.000000 0.382684 -0.923879
vertex -0.000000 0.707107 -0.707107
endloop
endfacet
facet normal 0.312801 0.468140 -0.826438
outer loop
vertex 0.270598 0.653282 -0.707107
vertex 0.270598 0.270598 -0.923879
vertex 0.146447 0.353554 -0.923879
endloop
endfacet
facet normal 0.464677 0.695439 -0.548124
outer loop
vertex 0.500000 0.500000 -0.707107
vertex 0.270598 0.653282 -0.707107
vertex 0.653281 0.653282 -0.382683
endloop
endfacet
facet normal 0.312801 0.468140 -0.826438
outer loop
vertex 0.500000 0.500000 -0.707107
vertex 0.270598 0.270598 -0.923879
vertex 0.270598 0.653282 -0.707107
endloop
endfacet
facet normal 0.552209 0.109841 -0.826438
outer loop
vertex 0.653281 0.270598 -0.707107
vertex 0.382683 0.000000 -0.923880
vertex 0.353553 0.146447 -0.923880
endloop
endfacet
facet normal 0.468140 0.312801 -0.826439
outer loop
vertex 0.653281 0.270598 -0.707107
vertex 0.270598 0.270598 -0.923879
vertex 0.500000 0.500000 -0.707107
endloop
endfacet
facet normal 0.194944 0.038777 -0.980048
outer loop
vertex 0.382683 0.000000 -0.923880
vertex 0.000000 0.000000 -1.000000
vertex 0.353553 0.146447 -0.923880
endloop
endfacet
facet normal 0.552208 -0.109841 -0.826439
outer loop
vertex 0.353553 -0.146446 -0.923880
vertex 0.382683 0.000000 -0.923880
vertex 0.653281 -0.270598 -0.707107
endloop
endfacet
facet normal 0.194944 -0.038777 -0.980048
outer loop
vertex 0.353553 -0.146446 -0.923880
vertex 0.000000 0.000000 -1.000000
vertex 0.382683 0.000000 -0.923880
endloop
endfacet
facet normal 0.165265 -0.110426 -0.980048
outer loop
vertex 0.270598 -0.270598 -0.923880
vertex 0.000000 0.000000 -1.000000
vertex 0.353553 -0.146446 -0.923880
endloop
endfacet
facet normal 0.312801 -0.468140 -0.826438
outer loop
vertex 0.146447 -0.353553 -0.923880
vertex 0.270598 -0.270598 -0.923880
vertex 0.270598 -0.653281 -0.707107
endloop
endfacet
facet normal 0.110427 -0.165265 -0.980048
outer loop
vertex 0.146447 -0.353553 -0.923880
vertex 0.000000 0.000000 -1.000000
vertex 0.270598 -0.270598 -0.923880
endloop
endfacet
facet normal 0.038777 -0.194944 -0.980048
outer loop
vertex 0.000000 -0.382683 -0.923880
vertex 0.000000 0.000000 -1.000000
vertex 0.146447 -0.353553 -0.923880
endloop
endfacet
facet normal -0.109841 -0.552209 -0.826439
outer loop
vertex -0.146447 -0.353553 -0.923880
vertex 0.000000 -0.382683 -0.923880
vertex -0.270598 -0.653281 -0.707107
endloop
endfacet
facet normal -0.038777 -0.194944 -0.980048
outer loop
vertex -0.146447 -0.353553 -0.923880
vertex 0.000000 0.000000 -1.000000
vertex 0.000000 -0.382683 -0.923880
endloop
endfacet
facet normal -0.110427 -0.165265 -0.980048
outer loop
vertex -0.270598 -0.270598 -0.923880
vertex 0.000000 0.000000 -1.000000
vertex -0.146447 -0.353553 -0.923880
endloop
endfacet
facet normal -0.468140 -0.312800 -0.826439
outer loop
vertex -0.353553 -0.146446 -0.923880
vertex -0.270598 -0.270598 -0.923880
vertex -0.653281 -0.270598 -0.707107
endloop
endfacet
facet normal -0.165265 -0.110426 -0.980048
outer loop
vertex -0.353553 -0.146446 -0.923880
vertex 0.000000 0.000000 -1.000000
vertex -0.270598 -0.270598 -0.923880
endloop
endfacet
facet normal -0.194944 -0.038777 -0.980048
outer loop
vertex -0.382683 0.000000 -0.923880
vertex 0.000000 0.000000 -1.000000
vertex -0.353553 -0.146446 -0.923880
endloop
endfacet
facet normal -0.552209 0.109841 -0.826438
outer loop
vertex -0.353553 0.146447 -0.923880
vertex -0.382683 0.000000 -0.923880
vertex -0.653281 0.270598 -0.707107
endloop
endfacet
facet normal -0.194944 0.038777 -0.980048
outer loop
vertex -0.353553 0.146447 -0.923880
vertex 0.000000 0.000000 -1.000000
vertex -0.382683 0.000000 -0.923880
endloop
endfacet
facet normal -0.165265 0.110427 -0.980048
outer loop
vertex -0.270598 0.270598 -0.923879
vertex 0.000000 0.000000 -1.000000
vertex -0.353553 0.146447 -0.923880
endloop
endfacet
facet normal -0.312801 0.468140 -0.826438
outer loop
vertex -0.146447 0.353554 -0.923879
vertex -0.270598 0.270598 -0.923879
vertex -0.270598 0.653282 -0.707107
endloop
endfacet
facet normal -0.110427 0.165265 -0.980047
outer loop
vertex -0.146447 0.353554 -0.923879
vertex 0.000000 0.000000 -1.000000
vertex -0.270598 0.270598 -0.923879
endloop
endfacet
facet normal -0.038776 0.194944 -0.980048
outer loop
vertex -0.000000 0.382684 -0.923879
vertex 0.000000 0.000000 -1.000000
vertex -0.146447 0.353554 -0.923879
endloop
endfacet
facet normal 0.109841 0.552208 -0.826439
outer loop
vertex 0.146447 0.353554 -0.923879
vertex -0.000000 0.382684 -0.923879
vertex 0.270598 0.653282 -0.707107
endloop
endfacet
facet normal 0.038776 0.194944 -0.980048
outer loop
vertex 0.146447 0.353554 -0.923879
vertex 0.000000 0.000000 -1.000000
vertex -0.000000 0.382684 -0.923879
endloop
endfacet
facet normal 0.110427 0.165265 -0.980048
outer loop
vertex 0.270598 0.270598 -0.923879
vertex 0.000000 0.000000 -1.000000
vertex 0.146447 0.353554 -0.923879
endloop
endfacet
facet normal 0.468140 0.312801 -0.826438
outer loop
vertex 0.353553 0.146447 -0.923880
vertex 0.270598 0.270598 -0.923879
vertex 0.653281 0.270598 -0.707107
endloop
endfacet
facet normal 0.165265 0.110427 -0.980048
outer loop
vertex 0.353553 0.146447 -0.923880
vertex 0.000000 0.000000 -1.000000
vertex 0.270598 0.270598 -0.923879
endloop
endfacet
endsolid Exported from Blender-3.0.1
