{
   "scenes":[
      {
         "nodes":[
            0
         ]
      }
   ],
   "nodes":[
      {
         "mesh":0
      }
   ],
   "meshes":[
      {
         "primitives":[
            {
               "attributes":{
                  "POSITION":1
               },
               "indices":0
            }
         ]
      }
   ],
   "buffers":[
      {
         "uri":"SimpleSparseAccessor.bin",
         "byteLength":284
      }
   ],
   "bufferViews":[
      {
         "buffer":0,
         "byteOffset":0,
         "byteLength":72,
         "target":34963
      },
      {
         "buffer":0,
         "byteOffset":72,
         "byteLength":168
      },
      {
         "buffer":0,
         "byteOffset":240,
         "byteLength":6
      },
      {
         "buffer":0,
         "byteOffset":248,
         "byteLength":36
      }
   ],
   "accessors":[
      {
         "bufferView":0,
         "byteOffset":0,
         "componentType":5123,
         "count":36,
         "type":"SCALAR",
         "max":[
            13
         ],
         "min":[
            0
         ]
      },
      {
         "bufferView":1,
         "byteOffset":0,
         "componentType":5126,
         "count":14,
         "type":"VEC3",
         "sparse":{
            "count":3,
            "indices":{
               "bufferView":2,
               "byteOffset":0,
               "componentType":5123
            },
            "values":{
               "bufferView":3,
               "byteOffset":0
            }
         },
         "max":[
            6.0,
            4.0,
            0.0
         ],
         "min":[
            0.0,
            0.0,
            0.0
         ]
      }
   ],
   "asset":{
      "version":"2.0"
   }
}



