ply
format ascii 1.0
comment VCGLIB generated
element vertex 114
property float x
property float y
property float z
property uchar red
property uchar green
property uchar blue
property uchar alpha
element face 224
property list uchar int vertex_indices
end_header
0.382683 0.92388 0 209 0 122 255
0.353553 0.92388 0.146447 77 0 205 255
0.270598 0.92388 0.270598 0 0 255 255
0.146447 0.92388 0.353553 63 0 214 255
2.34326e-17 0.92388 0.382683 235 0 106 255
-0.146447 0.92388 0.353553 235 0 106 255
-0.270598 0.92388 0.270598 235 0 106 255
-0.353553 0.92388 0.146447 235 0 106 255
-0.382683 0.92388 4.68652e-17 190 48 85 255
-0.353553 0.92388 -0.146447 0 255 0 255
-0.270598 0.92388 -0.270598 0 255 0 255
-0.146447 0.92388 -0.353553 155 86 69 255
-7.02978e-17 0.92388 -0.382683 235 0 106 255
0.146447 0.92388 -0.353553 235 0 106 255
0.270598 0.92388 -0.270598 235 0 106 255
0.353553 0.92388 -0.146447 235 0 106 255
0.707107 0.707107 0 0 0 255 255
0.653281 0.707107 0.270598 0 0 255 255
0.5 0.707107 0.5 0 0 255 255
0.270598 0.707107 0.653281 235 0 106 255
4.32978e-17 0.707107 0.707107 235 0 106 255
-0.270598 0.707107 0.653281 0 255 0 255
-0.5 0.707107 0.5 0 255 0 255
-0.653281 0.707107 0.270598 232 2 104 255
-0.707107 0.707107 8.65956e-17 94 153 42 255
-0.653281 0.707107 -0.270598 0 255 0 255
-0.5 0.707107 -0.5 235 0 106 255
-0.270598 0.707107 -0.653281 235 0 106 255
-1.29893e-16 0.707107 -0.707107 235 0 106 255
0.270598 0.707107 -0.653281 235 0 106 255
0.5 0.707107 -0.5 235 0 106 255
0.653281 0.707107 -0.270598 235 0 106 255
0.92388 0.382683 0 235 0 106 255
0.853553 0.382683 0.353553 235 0 106 255
0.653281 0.382683 0.653281 235 0 106 255
0.353553 0.382683 0.853553 0 255 0 255
5.65713e-17 0.382683 0.92388 235 0 106 255
-0.353553 0.382683 0.853553 235 0 106 255
-0.653281 0.382683 0.653281 235 0 106 255
-0.853553 0.382683 0.353553 117 127 53 255
-0.92388 0.382683 1.13143e-16 235 0 106 255
-0.853553 0.382683 -0.353553 235 0 106 255
-0.653281 0.382683 -0.653281 235 0 106 255
-0.353553 0.382683 -0.853553 235 0 106 255
-1.69714e-16 0.382683 -0.92388 235 0 106 255
0.353553 0.382683 -0.853553 235 0 106 255
0.653281 0.382683 -0.653281 235 0 106 255
0.853553 0.382683 -0.353553 235 0 106 255
1 6.12323e-17 0 235 0 106 255
0.92388 6.12323e-17 0.382683 235 0 106 255
0.707107 6.12323e-17 0.707107 227 7 102 255
0.382683 6.12323e-17 0.92388 89 158 40 255
6.12323e-17 6.12323e-17 1 235 0 106 255
-0.382683 6.12323e-17 0.92388 0 255 0 255
-0.707107 6.12323e-17 0.707107 230 5 103 255
-0.92388 6.12323e-17 0.382683 235 0 106 255
-1 6.12323e-17 1.22465e-16 0 255 0 255
-0.92388 6.12323e-17 -0.382683 235 0 106 255
-0.707107 6.12323e-17 -0.707107 235 0 106 255
-0.382683 6.12323e-17 -0.92388 235 0 106 255
-1.83697e-16 6.12323e-17 -1 235 0 106 255
0.382683 6.12323e-17 -0.92388 11 0 5 255
0.707107 6.12323e-17 -0.707107 6 0 3 255
0.92388 6.12323e-17 -0.382683 4 0 2 255
0.92388 -0.382683 0 235 0 106 255
0.853553 -0.382683 0.353553 235 0 106 255
0.653281 -0.382683 0.653281 235 0 106 255
0.353553 -0.382683 0.853553 235 0 106 255
5.65713e-17 -0.382683 0.92388 235 0 106 255
-0.353553 -0.382683 0.853553 235 0 106 255
-0.653281 -0.382683 0.653281 235 0 106 255
-0.853553 -0.382683 0.353553 0 255 0 255
-0.92388 -0.382683 1.13143e-16 235 0 106 255
-0.853553 -0.382683 -0.353553 235 0 106 255
-0.653281 -0.382683 -0.653281 235 0 106 255
-0.353553 -0.382683 -0.853553 235 0 106 255
-1.69714e-16 -0.382683 -0.92388 235 0 106 255
0.353553 -0.382683 -0.853553 235 0 106 255
0.653281 -0.382683 -0.653281 235 0 106 255
0.853553 -0.382683 -0.353553 235 0 106 255
0.707107 -0.707107 0 235 0 106 255
0.653281 -0.707107 0.270598 235 0 106 255
0.5 -0.707107 0.5 235 0 106 255
0.270598 -0.707107 0.653281 235 0 106 255
4.32978e-17 -0.707107 0.707107 235 0 106 255
-0.270598 -0.707107 0.653281 235 0 106 255
-0.5 -0.707107 0.5 235 0 106 255
-0.653281 -0.707107 0.270598 0 255 0 255
-0.707107 -0.707107 8.65956e-17 235 0 106 255
-0.653281 -0.707107 -0.270598 235 0 106 255
-0.5 -0.707107 -0.5 235 0 106 255
-0.270598 -0.707107 -0.653281 235 0 106 255
-1.29893e-16 -0.707107 -0.707107 235 0 106 255
0.270598 -0.707107 -0.653281 136 0 61 255
0.5 -0.707107 -0.5 110 0 49 255
0.653281 -0.707107 -0.270598 0 0 0 255
0.382683 -0.92388 0 235 0 106 255
0.353553 -0.92388 0.146447 235 0 106 255
0.270598 -0.92388 0.270598 235 0 106 255
0.146447 -0.92388 0.353553 235 0 106 255
2.34326e-17 -0.92388 0.382683 235 0 106 255
-0.146447 -0.92388 0.353553 235 0 106 255
-0.270598 -0.92388 0.270598 235 0 106 255
-0.353553 -0.92388 0.146447 235 0 106 255
-0.382683 -0.92388 4.68652e-17 235 0 106 255
-0.353553 -0.92388 -0.146447 235 0 106 255
-0.270598 -0.92388 -0.270598 235 0 106 255
-0.146447 -0.92388 -0.353553 235 0 106 255
-7.02978e-17 -0.92388 -0.382683 235 0 106 255
0.146447 -0.92388 -0.353553 235 0 106 255
0.270598 -0.92388 -0.270598 235 0 106 255
0.353553 -0.92388 -0.146447 235 0 106 255
0 1 0 235 0 106 255
0 -1 0 235 0 106 255
3 0 17 16
3 0 31 15
3 0 112 1
3 1 17 0
3 1 112 2
3 2 17 1
3 2 19 18
3 2 112 3
3 3 19 2
3 3 112 4
3 4 19 3
3 4 21 20
3 4 112 5
3 5 21 4
3 5 112 6
3 6 21 5
3 6 23 22
3 6 112 7
3 7 23 6
3 7 112 8
3 8 23 7
3 8 25 24
3 8 112 9
3 9 25 8
3 9 112 10
3 10 25 9
3 10 27 26
3 10 112 11
3 11 27 10
3 11 112 12
3 12 27 11
3 12 29 28
3 12 112 13
3 13 29 12
3 13 112 14
3 14 29 13
3 14 31 30
3 14 112 15
3 15 31 14
3 15 112 0
3 16 31 0
3 16 32 31
3 17 32 16
3 17 34 33
3 18 17 2
3 18 34 17
3 19 34 18
3 19 36 35
3 20 19 4
3 20 36 19
3 21 36 20
3 21 38 37
3 22 21 6
3 22 38 21
3 23 38 22
3 23 40 39
3 24 23 8
3 24 40 23
3 25 40 24
3 25 42 41
3 26 25 10
3 26 42 25
3 27 42 26
3 27 44 43
3 28 27 12
3 28 44 27
3 29 44 28
3 29 46 45
3 30 29 14
3 30 46 29
3 31 32 47
3 31 46 30
3 32 49 48
3 32 63 47
3 33 32 17
3 33 49 32
3 34 49 33
3 34 51 50
3 35 34 19
3 35 51 34
3 36 51 35
3 36 53 52
3 37 36 21
3 37 53 36
3 38 53 37
3 38 55 54
3 39 38 23
3 39 55 38
3 40 55 39
3 40 57 56
3 41 40 25
3 41 57 40
3 42 57 41
3 42 59 58
3 43 42 27
3 43 59 42
3 44 59 43
3 44 61 60
3 45 44 29
3 45 61 44
3 46 61 45
3 46 63 62
3 47 46 31
3 47 63 46
3 48 63 32
3 48 64 63
3 49 64 48
3 49 66 65
3 50 49 34
3 50 66 49
3 51 66 50
3 51 68 67
3 52 51 36
3 52 68 51
3 53 68 52
3 53 70 69
3 54 53 38
3 54 70 53
3 55 70 54
3 55 72 71
3 56 55 40
3 56 72 55
3 57 72 56
3 57 74 73
3 58 57 42
3 58 74 57
3 59 74 58
3 59 76 75
3 60 59 44
3 60 76 59
3 61 76 60
3 61 78 77
3 62 61 46
3 62 78 61
3 63 64 79
3 63 78 62
3 64 81 80
3 64 95 79
3 65 64 49
3 65 81 64
3 66 81 65
3 66 83 82
3 67 66 51
3 67 83 66
3 68 83 67
3 68 85 84
3 69 68 53
3 69 85 68
3 70 85 69
3 70 87 86
3 71 70 55
3 71 87 70
3 72 87 71
3 72 89 88
3 73 72 57
3 73 89 72
3 74 89 73
3 74 91 90
3 75 74 59
3 75 91 74
3 76 91 75
3 76 93 92
3 77 76 61
3 77 93 76
3 78 93 77
3 78 95 94
3 79 78 63
3 79 95 78
3 80 95 64
3 80 96 95
3 81 96 80
3 81 98 97
3 82 81 66
3 82 98 81
3 83 98 82
3 83 100 99
3 84 83 68
3 84 100 83
3 85 100 84
3 85 102 101
3 86 85 70
3 86 102 85
3 87 102 86
3 87 104 103
3 88 87 72
3 88 104 87
3 89 104 88
3 89 106 105
3 90 89 74
3 90 106 89
3 91 106 90
3 91 108 107
3 92 91 76
3 92 108 91
3 93 108 92
3 93 110 109
3 94 93 78
3 94 110 93
3 95 96 111
3 95 110 94
3 96 113 111
3 97 96 81
3 97 113 96
3 98 113 97
3 99 98 83
3 99 113 98
3 100 113 99
3 101 100 85
3 101 113 100
3 102 113 101
3 103 102 87
3 103 113 102
3 104 113 103
3 105 104 89
3 105 113 104
3 106 113 105
3 107 106 91
3 107 113 106
3 108 113 107
3 109 108 93
3 109 113 108
3 110 113 109
3 111 110 95
3 111 113 110
